<svg xmlns="http://www.w3.org/2000/svg" width="4266.667" height="4666.667" version="1.0" viewBox="0 0 3200 3500">
  <path d="M1539.5 118.7c-10.8 1.3-30.5 5.8-39 8.9-35.9 12.8-71.6 41.8-94.3 76.6-6.3 9.8-15.1 26.8-19.1 37.3-3.8 9.9-9.8 29.5-10.6 34.4-.3 2-1.2 7.2-2 11.6-.9 4.5-1.6 9.8-1.7 11.8-.1 4.3-1.8 6.2-1.8 2.1 0-1.5-.9-5.7-2-9.3-1-3.6-2.1-7.7-2.3-9.1-.7-3.6-7.1-19.8-10.8-27.1-7.5-14.7-19.4-29.7-31.4-39.5-4.9-4.1-9.2-7.4-9.5-7.4-.6 0-2.9 8-23.5 81-4.8 16.8-12.5 44-17.1 60.5-4.7 16.5-12.1 42.8-16.5 58.5-13.1 46.3-10.8 40.7-20.8 50.2-4.8 4.6-11.3 11.8-14.4 16-10.9 14.7-20.7 36.3-24.1 52.8l-1.3 6.5-1.2-6c-8.8-43.6-23-83.2-41.2-115-15.4-26.9-43.6-58-64.8-71.5-39.9-25.5-72.7-40-107.6-47.6-12.4-2.8-14.1-2.9-38.5-2.9-25.3.1-25.6.1-37.1 3.2-15.8 4.2-40.4 15.1-40.4 18 0 .6 54.9 44.9 122 98.3s122.7 97.8 123.5 98.7c1.3 1.3 1.3 1.5-.5.9-1.1-.3-7.4-1.5-14-2.7-25.4-4.5-57.4.4-81.5 12.6-42.8 21.6-71.4 61.5-78 109-1.9 14.2.3 39.1 5.1 56.3 4.7 16.6 15 36.2 27.1 51.4 1.2 1.5 1.9 3.1 1.5 3.5-1.3 1.3-47.8.8-57.7-.6-37.8-5.4-69.1-19.6-90.9-41.3-11.8-11.8-11.3-10.4-9.6-23.2 3.1-23.5 11.8-44.2 26-62 3-3.8 5.5-7.3 5.5-7.8 0-1.4-8.6.2-50 9.3-48.4 10.7-89.5 21.6-131 34.6-19.9 6.2-24 7.6-47.5 16.2-22.6 8.2-62.9 25.6-71 30.6-1.1.7-5.8 3.3-10.5 5.7-26.4 14-40.2 25.2-54.6 44.3-6.4 8.6-15.3 25.2-19.3 36.4-3.7 10.2-9.7 33.6-10.6 41.1-3.4 31-3.4 31.5-4.5 239.5-.6 113.8-1.5 213.3-2 221-1.6 27.2-10.2 58.1-24.2 87.5-11.5 24.1-14.6 35.3-12.9 46.1 1.4 8.2 4.9 20.3 9 30.7 4.1 10.6 2.2 9.9 17.2 6.7 7.5-1.6 8.8-1.7 10.6-.4 2 1.4 1.9 1.7-4.4 23.9-3.5 12.4-9.5 33.7-13.4 47.5-8.5 30-20.7 73.1-33.4 118-5.1 18.1-9.8 34.8-10.4 37-.8 3.1-3.3 6.2-10.8 13.5-17.8 17.4-30.9 41.1-35.8 65-.7 3.6-1.4 5.4-1.4 4.1-.2-4.5-6.3-29.7-11.1-45.6-18.5-61.4-50.3-109-90.9-135.9-52.1-34.6-104.9-51.7-149.2-48.4-11.6.9-30 4.9-38.9 8.5-8.6 3.5-24 11.3-24 12.2 0 .4 35 28.6 77.8 62.7 158.3 126.1 157.8 125.7 154.7 125-25.8-5.5-49.1-4.8-70.7 2-18 5.7-37.1 16.7-51.1 29.5-6.2 5.6-16.1 17.9-22.9 28.5-12.3 19-19.2 44.3-19.2 69.9 0 20.5 4.3 40.5 11.9 55.6 1.4 2.6 2.5 5.4 2.5 6.2 0 .7-2.7 6.5-5.9 12.8-6.6 12.6-10.1 21.2-15.4 36.9-3.9 11.7-9.5 35.6-10.4 44-.3 3-.8 144.8-1.2 315-.6 282.8-.9 310.5-2.4 321-.9 6.3-1.9 14-2.2 17-.3 3-1.9 11.6-3.5 19-7.6 34.4-14.8 55.9-30.5 91-11.8 26.3-14 34.9-14 54.5.1 11.8.5 15.8 2.9 25.5 8.3 34.5 25.8 62.8 48.9 79.1 10.1 7.2 22.7 13.2 33 15.9l8.7 2.3v20.3l9.7 3.2c5.4 1.7 11.7 3.4 14.1 3.8l4.2.7v-81.4c0-62.6-.3-82-1.3-83.8-.9-2-1.1-39.1-.7-174.4l.5-171.8-2.5-2.2c-2.3-2-2.3-2-.7-.1 1.6 1.9 1.7 11.7 1.5 173.9l-.3 171.9-5.3-7.1c-2.9-3.9-7-10.3-9.1-14.2l-3.9-7.1-.2-195.7-.2-195.8 2.5-10.6c11.8-50 47.4-84.1 93.7-89.9 11.4-1.4 20.3-.4 35.4 4 41.9 12.2 75.1 31.1 99.8 56.9 17.4 18.1 27.1 34.4 33.3 55.7 7.6 26 9.3 44.9 7.6 80.4-1.2 23.7-2 33.8-6.5 82-6.6 69.9-5.9 109.2 2.5 139.5 5.2 18.7 10.6 27.4 22.3 35.6 3.9 2.8 7 5.3 6.9 5.7-.4 1.1.8 4.4 1.4 3.9.2-.3 0-1.5-.7-2.6-1.3-2.5-.4-2.6 4.6-.4 3.1 1.3 7.1 1.6 18.9 1.6 14.7 0 15.2-.1 26-3.7 11.7-4 22.9-10.3 28.2-15.8 9.7-10.1 15.3-34.5 15.3-66.8-.1-18.2-.9-29.4-5-70-1.6-14.9-2.3-30.2-2.7-56-.5-38.3.1-47.3 5.1-72 6.6-32.5 22.6-54.6 48.3-67 25-12.1 55.7-11.7 80.3 1.1 21.6 11.2 33.1 26.9 37.9 51.9 2.5 12.6 5.4 48.9 7.2 88.5 1.7 35.9 1.8 196.2.2 211.1-2.3 21.6-6 36.1-19.3 76.9-18 55.2-23.8 78.8-24.7 100.5-1.5 34.8 9 63.5 30.9 84.7 3.4 3.3 7.6 8.3 9.3 11 4.5 7.2 15.9 18.7 23.8 24 27.6 18.4 55.6 13.8 80.3-13.1 6.2-6.7 12.3-15.3 13.9-19.7.8-2-.2-2.3-16.5-4.4-6.9-.9-14-2-15.8-2.3l-3.2-.7 5.6-7.4c14.5-19.4 21.7-44.2 20-69.6-.8-12.8-1.1-15-4.6-33-15.6-82.1-21.9-140.2-20.5-191.5.3-12.4.8-31.1 1-41.5 1.7-62.7 8.3-118 18.1-150.1 12.9-42.5 39.9-70.5 78.9-81.8 40.6-11.7 92 .6 112.3 26.9 7.1 9.2 17.8 31.4 29.7 61.5 20.4 51.6 32.2 72.5 52 92.6 14.5 14.7 27.4 22.4 46.5 27.5 11.5 3.1 39.8 3.4 53 .5 19.9-4.3 37.1-13.6 49.4-26.7 11.5-12.1 18.2-23.6 33.9-57.9 12.8-28.1 19.5-38.7 31.3-50.1 16.3-15.5 34.8-21.9 63.6-21.9 37.6 0 63.4 8.9 88.1 30.4 13.3 11.5 30.9 35.5 43 58.6 9.4 17.9 17.1 35.9 38.2 89.4 20.8 52.7 34.5 77.8 54.3 99 5.3 5.7 12.2 13.7 15.2 17.6 17.2 22.5 45.6 36.5 67.8 33.3 26-3.8 43.8-27 63.8-83.2 2.4-6.8 4.4-12.8 4.4-13.3s-6.4-.8-15.5-.6c-13.5.3-15.4.1-14.9-1.2.6-1.7 14.2-43.2 28.3-86.5 21.1-64.7 38.2-97.8 63.5-123.1 14.7-14.7 29.4-23.4 48.6-28.9 8.2-2.4 11.9-2.8 26.7-3.2 15.5-.5 17.9-.3 24.1 1.6 45.1 13.7 75.6 99.6 86.2 242.6 4.1 56.4 3.9 136.6-.6 170.2-.8 6.1-3.3 18.5-5.5 27.4-2.2 9-5.2 23.3-6.7 31.9-2.4 13.8-2.7 18-2.7 39 0 21.4.2 24.3 2.3 32.5 3.4 13 8.5 22.8 15.8 30.2 3.9 4 5.6 6.3 4.5 6.3-.9 0-9.2.5-18.6 1-19.7 1.1-109.1 4.5-163 6.1-20.3.6-77.9 1.4-128 1.8-50 .4-78.3.8-62.7.9l28.2.2v350.2l27.4-.4c15.1-.2 27.2 0 27 .4-.7 1-132.4 1-132.4 0 0-.4 1.6-1.6 3.5-2.6 5-2.7 12.8-11.3 16-17.6 9.2-18.1 2.4-41.6-15.3-52.9-11.3-7.1-27.2-8.1-39.2-2.3-7 3.3-14.8 10.3-18.6 16.7-10.6 18-4.6 43.3 12.9 54.6l6 3.9h-7.9c-4.3 0-36-.7-70.4-1.5-138.1-3.2-285.9-11.6-415.4-23.5-394.9-36.3-695.6-106.1-825.1-191.5-30.3-20-49.3-38.6-60.8-59.5-3.8-6.9-8.7-22.1-8.8-27.4 0-3.1 0-3.1-1.1-.6-.6 1.6-.8 12.2-.5 29.5.4 23.4.8 28.1 2.6 35 2.2 8.2 7.9 20.4 13.4 28.5 8.3 12.4 26.9 30.2 44.2 42.5 49.4 35.2 122 66 227 96.4 29.5 8.5 35.1 10.1 36.3 10.1.7 0 6.1 1.3 12 2.9 27.8 7.6 92.9 22.3 137.2 31 86.3 16.8 179.4 31.2 278.5 43 42.3 5.1 130.7 14.5 146.5 15.6 4.1.3 23 1.9 42 3.5 53.6 4.5 101.6 8.1 123 9.1 10.7.4 33.5 1.8 50.5 2.9 17.1 1.1 44.1 2.5 60 3 16 .5 38.7 1.4 50.5 2 85.8 3.9 158.7 5.4 270 5.4 111.1 0 189.5-1.6 270.5-5.4 11.6-.6 34.3-1.5 50.5-2 16.2-.5 43.5-1.9 60.5-3 17.1-1.1 39.6-2.5 50-2.9 34.8-1.6 133.1-9.5 196-15.6 136-13.4 248.1-28.7 362.5-49.6 45.6-8.4 118.5-23.9 145.2-31 5.9-1.6 11.5-2.9 12.4-2.9.8 0 6.6-1.4 12.7-3.1 6.2-1.7 16.8-4.6 23.7-6.5 21.8-6 34.2-9.6 44.5-12.7 12.6-3.8 68.3-22.5 79-26.5 10.5-3.9 33.7-13.3 40-16.2 2.8-1.2 9.8-4.4 15.6-7 54.2-24.7 98.9-57.1 116.4-84.5 5.8-8.9 10.2-18.8 12.4-27.4 2.1-8.4 2.1-9.4 2.1-130.7v-122.2l4.8-.7c36.8-5.3 65.4-28.7 80.2-65.5 3.5-8.5 4-11 4.7-21.6 1.7-25.3-1.8-44.5-11.4-62.4-11.9-22.1-16.3-32-22.2-49.7-4.9-14.8-8.9-31.5-10.1-42.4-.6-4.6-1.5-12.7-2.1-17.9-.8-6.9-.8-48.3.1-152.5 1.6-184.2.4-344.8-3.1-423.5-.7-14-1.1-26.4-1-27.5.2-3.1-1.8-19.8-3.9-32.8-1.1-6.5-2.2-13.7-2.5-16-1.2-11.1-10.3-43.1-17.8-62.7-5.2-13.7-19.8-41.1-26.4-49.8-1.7-2.3-2.2-3.7-1.5-4.5 2-2.4 7.2-17 9.7-26.9 3.9-15.5 5.1-29.6 3.7-42.6-6.3-59.7-45.1-105.3-101.7-119.3-13.9-3.5-35.8-5-44.8-3.1-11.1 2.3-19.7 3.9-19.7 3.5 0-.3 12.5-10.3 145-115.7 47.6-37.9 87.3-69.6 88.4-70.6 1.8-1.7 1.6-1.9-5-5.6-20.5-11.5-41.8-16.8-67.4-16.9-43.8-.1-90.7 16.6-141.4 50.4-16.2 10.7-30.9 26-50.4 52.1-6.4 8.6-19.6 33.4-25.9 48.9-8.6 21.1-15.8 44.9-20.3 67l-2.7 13.5-1.8-8c-5.2-23.8-20.5-50.4-38-66l-6.7-6-2.9-10.5c-1.7-5.7-5.9-20.5-9.4-32.9-3.4-12.4-10.9-38.7-16.5-58.5-29.6-104.5-36.1-127.7-35.8-128 3.6-2.8 20.2 0 36.3 6 5.3 2 9.9 3.4 10.2 3.1.3-.3-.4-2.7-1.5-5.3-2.1-4.9-9-25.9-9.7-29.3-.2-1.1-1.5-6.1-2.9-11.2-2.5-9.2-4.4-20-7.2-41.3-1.1-8.7-1.6-36.1-2.3-133-.5-67.1-1.2-133.7-1.5-148-.4-14.3-.6-45.8-.6-70-.1-69.2-1.8-157.3-3.5-176-2.9-31.4-11.4-57-26.8-80-7.9-11.9-29.2-33.1-40.7-40.7-17.8-11.6-57.2-30.8-85.5-41.6-4.4-1.7-11.4-4.4-15.5-5.9-10.1-3.9-63.7-21.3-77.5-25.1-61.5-17.2-124.5-31.6-185-42.2-14.5-2.6-15.5-2.8-15.5-4.3 0-1.3-9.2-16.6-14.5-24.2-2-2.8-7-8.5-11.3-12.9-18.9-19.3-43.1-32.5-70.5-38.3-11.4-2.4-37.9-2.5-49.7-.1-4.7 1-9.1 1.8-9.8 1.8-.7 0 15.3-13.2 35.5-29.3s52.3-41.7 71.3-56.8c19-15.1 56.5-45 83.4-66.4l48.8-38.9-2.8-2.3c-8.1-6.5-29.4-14.4-46.8-17.4-22.6-3.9-55.1-2-76.1 4.6-4.4 1.3-8.6 2.5-9.3 2.5-3.7 0-33.5 12.6-48.2 20.3-14.7 7.7-38.9 22.7-46 28.5-44 36.2-74.9 93.8-90.4 168.6l-2.3 10.9-.7-5.2c-.9-6.5-5.6-20.7-10.2-30.9-5.7-12.5-15.6-26.3-26.5-37l-9.9-9.7-2.9-10.5c-1.7-5.8-6.9-24.2-11.6-41-4.8-16.8-11-39.1-14-49.5-3-10.5-10.6-37.5-17-60-6.4-22.6-13.6-48.3-16.2-57.2l-4.6-16.2-4.4 3c-11.4 7.9-28.9 29.1-36.2 43.8-6.3 12.7-13.9 36-14.5 44.6-.5 5.3-1.1 5.1-3.4-1.2-1.2-3.2-4.5-9.9-7.3-14.8-13.9-24.3-34.5-47-60-66.1-17.8-13.3-28.7-19.8-57.4-34.4-12.1-6.2-36.6-18.7-54.5-27.8-17.9-9.1-38.9-19.8-46.8-23.8-15.9-8.1-35.2-16.4-38-16.4-1 0-2.2-.4-2.7-.9-1.6-1.5-27.2-8.9-36.5-10.6-19.1-3.4-29.1-4.5-42.5-4.3-7.7 0-15.3.3-17 .5zm47.7 30.1c23.5 6.6 36.3 27.8 27.4 45.4-6.1 12-22.8 25.1-48.4 37.8-29.5 14.7-51.2 19.1-64.7 13.1-16-7.1-22-30.2-13-50 11.2-24.4 40.9-44.6 71.5-48.5 6.4-.8 20.4.3 27.2 2.2zm-116.5 55.7c3.6 3.6 3.6 3.6 3.1 11-.4 6.1-1.1 8.4-3.9 13.1-10.1 16.9-26.8 15.7-26.3-1.8.3-8.7 7.1-20 14.3-23.8 5.5-2.9 8.7-2.6 12.8 1.5zm177.3-1c8 4.1 8 17.4 0 29-3.5 5.1-10.3 9.5-14.7 9.5-6.6 0-11.2-7.7-9.8-16.4 1.6-9.4 9.9-20.4 17-22.5 4.2-1.3 4.3-1.3 7.5.4zm-90.9 44.1c10.4 5.4 5.7 28.2-7.5 35.9-5.7 3.4-10 3.3-13.6-.3-8.8-8.8.1-32.1 13.8-36.2 3.9-1.2 4-1.2 7.3.6zm202.1 12.5c4.8 2.6 6.1 12.3 2.8 21.1-5.2 13.9-18 20.9-25.1 13.9-2.6-2.7-2.9-3.6-2.9-9.8 0-10.1 4.3-18.3 12.4-23.7 4.1-2.8 9.3-3.4 12.8-1.5zm-288.8 44c5.3 2.4 7.1 12.1 4 21.2-3.2 9.3-14.6 18.7-20.9 17.1-7.8-2-10-13.7-4.6-24.9 5.3-11.1 14.3-16.7 21.5-13.4zm199.1 1.3c9.6 9.6-3 36.5-17.2 36.6-9.3 0-12.8-13.4-6.6-25.4 6.1-11.8 17.7-17.3 23.8-11.2zm191.1 6.9c2.3 2 2.8 3.4 3.2 8.5.6 7.9-1.7 14.7-7 20.7-4.7 5.3-8.4 7.5-12.8 7.5-6.4 0-10-4.5-10-12.4 0-16.8 17.1-32.4 26.6-24.3zm-290.7 42.8c12.9 4.5 4.8 33.3-10.7 38-3.2.9-4.5.9-6.8-.2-11.9-5.7-5.4-30.8 9.6-37.3 4.3-1.9 4-1.8 7.9-.5zm198.2-.1c4.8 2.6 6.3 12.5 3.3 21.3-1.7 5.2-8.2 13-12.5 15.2-8.5 4.5-15.9-.6-15.9-10.9 0-15.4 15.2-30.9 25.1-25.6zm-393.2 52.4c.6 3.3 1.1 7.8 1.1 10.1v4.1l7.8 1.8c16.6 3.8 36.9 12.9 52.6 23.6 27.5 18.5 56.5 49.2 67.4 71.3 12.4 25.2 18.1 49.8 19.8 85.4l.7 14.3h-11.4c-17.9 0-27 1.4-51.9 8.1-17.4 4.6-37.3 16.2-58.1 33.8l-3.6 3-8.4-5.6c-26.4-17.5-44.6-36.8-56.5-59.8-6.9-13.4-18.4-41.4-18.4-44.8 0-.8-.9-4-2-7.3-4.1-11.7-6.4-28.6-6.4-46.9 0-29.2 4.7-45.5 19.6-68.2l6.1-9.1 8.6-.8c4.7-.4 12-.7 16.3-.7 8.8.2 7.5 1.8 10.8-14.4 1.1-5.2 2-11 2-12.7 0-6.2 1.5-4.7 2.1 2.1.4 3.7 1.2 9.5 1.8 12.7zm104-8.3c12.1 4.2 5.6 31.5-9.1 37.3-5 2-8.7 1.4-11.9-2-2.1-2.2-2.4-3.5-2.4-9.7.1-5.8.6-8.2 2.7-12.2 3.1-5.9 8-10.8 12.8-12.9 4.3-1.9 4-1.8 7.9-.5zm390.5 9c5.1 6 2.9 19.9-4.4 28.2-7 7.9-13.8 9.7-19.1 4.9-10.3-9.2 2.1-36.2 16.7-36.2 3.5 0 4.7.5 6.8 3.1zm-187.3 4.2c6 4.6 5.5 18.4-1 27.4-6.2 8.6-14.4 12.3-19.7 8.8-3.1-2-5.4-7.1-5.4-11.9 0-7.9 6.6-19.5 13.4-23.7 3.5-2.1 10.3-2.5 12.7-.6zm110.9 9.2c11.1 1.3 25.3 4.4 28.1 6 1.6 1.1 10.5 19.4 13.7 28.6 16.6 47 9.9 105.3-18.8 163.7-11 22.4-15.8 30.5-25 41.5-24.8 29.7-65.7 56-112.1 72.2-5.5 1.9-10.6 3.5-11.3 3.5-.6 0-2.7-4.6-4.5-10.3-5.3-16-15.6-35.2-25.3-46.8-2.1-2.5-3.8-4.9-3.8-5.3 0-.5 2.3-4 5.1-7.8 2.8-3.9 4.7-6.8 4.1-6.4-.5.3-2.9 3.3-5.3 6.6l-4.4 5.9-8-7.8c-14.9-14.5-27.6-23.7-43.3-31.3l-8.4-4.1.7-4.6c.3-2.5 1.5-10 2.6-16.6 1.1-6.6 2.1-15.6 2.3-20 .2-8.3 2.4-14.4 6.2-17.6 1.6-1.3 1.7-1.2 1 .6-1.6 3.9-1.7 6-.2 2.6.9-1.8 1.4-3.6 1.2-4-1.5-2.4 12.5-32.3 21.8-46.5 6.4-9.8 20-25 36.7-41 41.9-40.1 86.2-61.3 130.4-62.5 2.2 0 9.6.6 16.5 1.4zm117.6 12.2c-1 1-1.9-.5-1-1.8.6-1.1.8-1.1 1.2 0 .2.7.1 1.5-.2 1.8zm-318.7 23.7c3.5 3.7 4.3 9.3 2.5 16.2-1.8 7.2-4.4 11.4-9.6 15.9-12.1 10.3-23.2.8-18.4-15.8 4.2-14.5 18.6-23.7 25.5-16.3zm-310.9.5c7.8 4.1 7 9.3-2.8 17.9-3.6 3.1-8.4 8.6-10.7 12.2-2.3 3.6-5 7.3-5.9 8.3-2.9 2.8-6.4 2.1-10.7-2.2-3.5-3.5-3.9-4.4-3.9-9.1 0-7.4 4.5-16.5 11.1-22.4 7.4-6.7 16-8.4 22.9-4.7zm835.7 99.2c4.6 1.7 7.3 4.9 7.3 8.6 0 4.9-2 9-10.1 20.8-9.1 13.5-12.8 15.7-19.7 11.5-9.9-6-9.6-20.8.6-32.1 4.7-5.2 12.7-9.9 16.9-9.9 1.2 0 3.4.5 5 1.1zm-188.8 42.4c4.7 2.4 5.4 7.1 2 14.5-5.2 11.5-24.6 23.8-32.9 20.8-6.7-2.3-7.9-11.2-2.7-19.8 7.2-12.1 24.7-20.2 33.6-15.5zm-686.5 13.6c3.7 2.9 3.6 8.7-.4 15.5-3.7 6.6-10 12.1-19 16.7-10.1 5.2-15.3 4.8-18.5-1.3-3.9-7.5.2-17.6 10.5-25.4 9.7-7.4 21.9-9.8 27.4-5.5zm207 52c2.1.6 5.7 2.8 8 4.9 3.7 3.5 4.1 4.3 4 8.7 0 2.6-.7 6.4-1.6 8.4-1.4 3.3-2.3 3.8-8.9 5.8-10.4 3-14.3 4.9-17.5 8.2-4.7 4.9-4.3 13.8.8 21.2 1.1 1.6.9 2.2-2 4.8-4.6 4.1-10.3 4-16.8-.4-12.4-8.3-13.9-25.4-3.6-41.3 10.5-15.9 25-23.8 37.6-20.3zm-128.9 18c11.1 1.1 26.3 4.3 43 9.1 6.1 1.7 11.1 3.2 11.2 3.3.2.1-1.1 2.7-2.8 5.8-6.1 11.3-11 24.2-14.8 38.7-2.1 8.2-3.5 15.1-3 15.2.4.2.3 3.7-.3 7.8-2.8 20 2.1 53.3 10.9 74.5l2.5 5.9-3.8 3.3c-7 6-23.9 17.1-34.5 22.7-19.9 10.4-35.2 14.6-64.8 17.7-18.2 1.9-50.7.7-67.1-2.4-36.4-7-67.5-23.6-86.1-45.9-5.6-6.7-5.5-9.3.2-11.4 1.9-.7 2.9-1.3 2.2-1.3-.6-.1-2.4.4-3.9.9l-2.6 1 .6-5.7c1.1-8.8 5.3-25.3 8.2-31.9 4.7-10.7 5.6-12.4 6.5-11.8.5.3.6-.1.4-.8-.6-1.6 6.4-12.4 14.6-22.4 18.6-22.8 51.4-45.3 89.4-61.2 28.7-12 54.3-15 94-11.1zm680.5 8.4c45.3 8.7 100.9 40.6 126.2 72.3 3.2 4.1 5.5 7.8 5.2 8.4-.4.6-.2.8.3.5 2.3-1.5 13.4 19.7 18.2 34.7 3.7 11.4 5.6 26 3.3 25.1-.8-.3-2.6-.7-4-1-1.5-.3-.8.2 1.5 1.1 8 3 7 5.6-7.8 20-29.5 28.4-69.6 42.6-121.4 42.7-20.8 0-32.4-1-50.8-4.4-27.7-5.1-58.4-22-86.4-47.5l-8.3-7.5 4.4-8.7c16.3-32.5 19.9-72.9 9.5-106.5-1.7-5.6-3.8-11.4-4.5-12.9l-1.4-2.7 8.7-2.6c4.9-1.5 10.8-3.3 13.3-4.1 6.9-2.1 33.8-7.3 43.1-8.2 12.8-1.4 41.1-.6 50.9 1.3zM516.2 751.3c7.3 4.4 12 13.4 15.3 29.1 3.7 17.7 8.6 28.3 19.4 41.8C580.1 858.8 633.7 889 721 918c170.3 56.6 443.5 95.4 748 106.2 19.5.7 33.6 1.4 31.3 1.6l-4.3.3v15.8l4.3.3c10 .7-92.5 1.8-120.3 1.3-127.9-2.4-215.4-6.5-310-14.5-247.9-21-430.8-63.3-522.2-120.7-38.1-24-59.9-48.4-69-77.4-2-6.4-2.3-9.4-2.3-22.9 0-17.9 1.6-26.6 6.9-37.8 3.7-7.6 8.8-13.9 15-18.4 5.1-3.6 12.3-3.9 17.8-.5zm77.4 319.8c25.9 3.6 51 16.3 70.5 35.8 19.8 19.9 30.1 41.2 36 74.7 2 11 2.3 16.4 2.3 37.4.1 23.2-.1 25.1-2.6 36-3.8 16.3-9.8 33-11.8 33-.4 0-1-7.8-1.3-17.3-.9-21.9-2.1-32.6-5.7-50.7-7.3-35.9-23-69.8-41.7-90.1-22.1-23.9-52.5-37.2-81.3-35.5-15.2.8-26.5 4.3-39 12-14.9 9.2-20 10.5-20 5.1 0-3 7.5-12.9 14.7-19.5 10.9-10 29.7-18.6 45.3-20.9 8.2-1.3 25.8-1.2 34.6 0zm2080.9 24.7c18.9 9 33.9 44.1 38.5 90.1.6 6.4 1 51.9 1 119.1v108.8l-8.2 5.5c-24.2 16.1-43.8 42.5-58.2 78.4-9.5 23.7-14.3 44.6-15.7 67.9-.6 11.2-1.7 19.2-3.3 25.7-2.5 9.9-9.1 25.4-11.7 27.3-.8.6-6.3 3.2-12.4 5.8-11.9 5.2-12.6 5.2-21.5 1.3-5.5-2.4-5.5-2.5-7.3-9.1-1-3.6-2.2-11-2.7-16.4-1.3-12.9-1.3-62.8 0-88.3 3.2-65.7 13.2-159.5 23.4-219.4 1.3-7.7 2.3-14.1 2.2-14.2-.2-.2-4 1.3-8.5 3.2-4.5 1.9-8.7 3.5-9.3 3.5-1.4 0-.6-6.5 3.3-29 13.9-80.2 29.8-132.4 45.7-149.3 7.2-7.6 21-13.6 31.7-13.6 5.7-.1 8.1.4 13 2.7zM584 1122.3c17.2 5.7 28.6 14.4 40.7 31.2 17 23.5 24.6 42.4 31.2 77 9.4 49.3 18.2 136.8 16.8 167.5-.4 9.7-1.4 15.2-6.5 35.5-7.1 28.2-9 38.2-9.8 52.5-1 16.8 2.8 30.3 11.2 39.9 2.5 2.9 3.8 5.3 3.7 7-.1 2.2-.1 2.3.4.3.5-2.6.7-2.6 3.6-.8 4.6 3 14.6 5.6 21.4 5.6 22.3 0 33.5-20.3 33.5-60.5 0-15.8-2.4-39.6-5.7-56.8-2-10.6-1.9-21.6.5-39.9 4-30.8 14.2-65.8 27.1-92.7 16.4-34.3 33.6-51.5 52.7-52.9 9.5-.6 21.8 2 32.2 6.9 7.1 3.4 9.9 5.5 17.5 13.2 10.7 11 16.6 20.4 24.1 38.8 6.8 16.6 9.7 26.2 17.8 57.9 9 35.3 12.6 45.8 19.9 57.1 2 3.1 3.3 6 2.9 6.4-.4.5-.1.5.6.1s2.6.3 4.3 1.5c4.7 3.3 11.4 3.6 17.4.8 9.5-4.4 22.6-20.1 35.7-42.9 3.3-5.8 4.8-7.5 6.3-7.3 1.7.1 1.7.1.2-.3-2.4-.7-2.7-.2 11.4-24.8 29-50.6 45.7-70.5 68.3-81.2 7.3-3.5 8.7-3.8 18.5-4.2 11.9-.4 21.1 1.1 32.4 5.4 12.3 4.7 23.4 13.2 45.1 34.3 21.5 20.9 32.8 29.7 46.1 36.1 22.2 10.5 50.3 14.8 65.6 10 13.7-4.2 22.8-11.1 51.9-39.5 29.5-28.8 40.9-36.6 58.6-40.1 17.6-3.5 35.4 1.3 56.3 14.9 28 18.4 48.8 47.9 72.4 102.7 28.8 66.8 51.3 165.1 49.5 215.8-.5 12.1-1.1 16.1-5.7 34.5-6.4 26.3-11.6 51.9-13.6 67-1.9 14.7-1.9 38-.1 46.7.8 3.6 1.2 6.7 1 6.9-.2.3-1.9-.9-3.7-2.6-1.7-1.6-5.4-4.5-8.2-6.4-2.7-1.8-9.7-7.1-15.4-11.7-13.5-10.9-19-13.5-30.1-14-8-.4-9.3-.2-22.5 4.3l-14 4.8-6.2-1.6c-10.8-2.8-31.7-12.8-39.3-18.7-3.3-2.5-17.5-6.6-32-9.1-37.2-6.5-79-1.4-123.8 15.1-14.7 5.4-53.8 24.4-66.4 32.2l-7.8 4.8-2.9-5.3c-1.6-2.8-3.6-6.1-4.5-7.2-.9-1.1-4.7-6.6-8.5-12.3-26-38.4-61.2-72.3-94.3-90.5-10.1-5.6-28.5-12.4-40-14.8-12.8-2.6-29.9-2.8-41-.5-23.9 5.1-44 19.1-64.5 44.9-5.2 6.5-10.8 12.7-12.6 13.7-6.6 4-12.4 1.7-21.8-8.8-6-6.6-10.8-16-15.4-30.2-8.2-25.2-15.8-33.6-34.6-38.5-8.7-2.3-16.4-1.6-26.4 2.5-5.4 2.2-10.3 3.4-15.1 3.7-6.6.5-7.7.3-15.1-3.1-16-7.2-29.9-7.4-42.9-.8-2.3 1.2-9.9 7.5-16.9 14.2-6.9 6.6-14.5 13.1-16.8 14.4-7.2 4.2-17.7 5-58.2 4.2-66.4-1.2-72.7-2.3-78.6-13.8-2-3.9-5.3-23-6.3-36.8-3.3-44.4-19-85.7-43.6-115.1l-6.1-7.2.3-121.1c.2-66.6 0-119.1-.4-116.6-.3 2.5-.7 56.4-.7 119.8l-.1 115.3-5.5-4.8-5.5-4.8.3-133 .2-133 2.9-10.5c1.5-5.8 4.7-14.1 6.9-18.5 8.2-15.9 25.2-29 42.8-33 8.1-1.8 30.3-1.3 36.9.8zm1825 48.4c14.7 7.1 30.4 25.9 43 51.8 18.9 38.9 30.7 81.8 41.5 151 8.3 53.2 12.7 109.1 12.8 160.5 0 30.5-1.2 46.8-4 54.9-.9 2.5-3.3 10.9-5.2 18.6l-3.6 13.9-4.1.7c-9.9 1.7-16.1 6.1-24.4 16.9-7.1 9.2-14.8 16.6-19.7 18.7-6.6 2.7-16.5 2.7-38-.1-22.8-2.9-32.2-3.2-47.3-1.2-41.8 5.7-81.3 22.8-114.3 49.8-5.4 4.3-10.5 7.8-11.3 7.6-.9-.2-3.5-5.1-6.3-11.8-17-41.1-40.6-70.1-68.7-84.7-13.5-7-21.4-8.8-38.9-8.8-17.6.1-30.2 2.6-47.4 9.4-38.5 15.3-77.4 49-106.9 92.5l-6.7 9.8-.3-17.8c-.4-21.2 1.3-72.5 3.3-105.4 5.9-92.3 17.8-157.2 36.4-198.4 1.7-3.8 3-7 2.9-7.2-.2-.1-5.8.3-12.6.9-6.7.5-12.4.8-12.7.5-.8-.8 5.2-17.4 10-27.3 13.2-27.6 28.4-40.5 47.6-40.5 24.9 0 47.7 9.5 65.2 27.3 5.8 5.9 20.7 25.1 20.7 26.7 0 .9-3.5 2-6.8 2-2.1 0-1.7.7 3.7 6.6 3.3 3.7 9.8 12.1 14.3 18.7 25.8 37.5 35 46.8 53.8 54.4 10.8 4.3 19.1 5.5 35 5.1 13.1-.4 15.1-.7 20.2-3 7.7-3.6 12.9-7.9 19.9-16.6 11.6-14.4 23-35.8 38.3-71.5 9.5-22.3 9-20.8 6.3-20.2-4 1-25.2 4.3-25.6 3.9-.2-.1 2.2-6.1 5.2-13.1 3.1-7 11.6-27.7 19-45.8 30.3-74 43.8-99.7 62.1-118.1 15.4-15.5 27.3-18.4 43.6-10.7zm-1560.8 27.7c28.1 7.1 49 25.8 69.7 62.2 14.1 24.8 22.6 51 25.2 77.9 1.4 14.7.8 21.8-2.4 28.9-2.9 6.3-7.2 9.6-12.5 9.6-7.2 0-9.4-5.4-20.8-50.5-7.5-30-10.1-38.4-15.7-51.5-15.7-36.3-30.1-51.5-60.7-64.1-10.8-4.5-13.6-6.9-11.8-10.2.6-1.2 1.8-2.7 2.7-3.4 2.7-2.1 15.9-1.5 26.3 1.1zm282.3 23.6c4.4 1.1 11.8 3.9 16.5 6.2 8.1 3.8 9.6 5.1 30.5 26.2 12.1 12.2 25.2 24.5 29 27.4 10.7 8.1 21.4 13 32 14.8 10.7 1.8 17.2 4.8 20.3 9.4 3.2 4.8 2.9 8.5-1.1 12.5-4.5 4.5-11.8 6.5-23.1 6.5-21.6-.1-39.1-11.4-77-49.7-34.9-35.4-50.4-45.3-71-45.3-8.9 0-13.6-1.4-13.6-4 0-1.8 5.3-4.4 11.4-5.7 9.7-2 36.1-1 46.1 1.7zm316 17.5c29.6 6 53.5 18.5 73.5 38.5 29.1 29.1 46.6 72.3 51.1 125.6 1.2 14.4.7 41.7-.8 46.8-2.1 7-3.6 3.9-7.3-14.9-3.2-16.6-7.4-32.7-13.1-49.7-24.3-73.9-62.4-119.7-114.6-137.9-12.6-4.4-15.3-7.7-8-9.8 4.8-1.4 5.9-1.3 19.2 1.4zM449 1384.8c1.9 1.5 2.4 3.8 4.1 18.9 1.7 15.1 1.8 17.7.5 20.6-1.3 3.3-8.2 9.5-7 6.4.4-1.1-.9-1.6-5.7-2.1-3.4-.3-8.1-.6-10.5-.6-3.5 0-4.6-.5-6.2-2.8-4.4-6.3-5.5-16.1-2.6-24.5 1.7-5.1 8.1-12.9 12.9-15.8 3.9-2.5 11.5-2.5 14.5-.1zm246 72c2.1 1.7 2.5 3.6 4.2 19.1l1.9 17.3-2.1 4.4c-3.2 6.5-7.9 8.9-17.3 8.5-3.9-.1-11-7-13.7-13.3-5.4-12.6 1-29.8 13.5-36.2 4.1-2.2 10.7-2 13.5.2zm1087.5 10.7c8.5 2.3 22.9 9.5 30.5 15.3 13 9.8 29.3 29.8 37.3 45.9 9.7 19.2 22.4 72.1 28.1 117.3 3.3 25.9 6 61 4.8 61-.4 0-4.8-1.6-9.7-3.5-21.3-8.4-37.9-11.3-69.5-12.2-71.4-1.9-117.5 13.4-145.6 48.4l-7.9 9.8-.7-13.5c-.9-18-3-34.4-8.3-64.5-5.5-31.3-6.5-40.4-6.5-60.2.1-47 13.3-85.4 38.3-111 19.1-19.6 42.9-30.7 74.7-34.7 7-.9 28.6.3 34.5 1.9zM493 1504.6c0 8.7-.4 13.3-1 12.9-.5-.3-1-1.4-1-2.3 0-.9-2-5.8-4.4-10.7-2.4-5-4.2-9.3-3.9-9.8.2-.4 1.2-.7 2.1-.7.9-.1 2.8-.7 4.2-1.5 1.4-.8 2.8-1.4 3.3-1.5.4 0 .7 6.1.7 13.6zm261.2 127.1c9.6 10.4 17.6 23.2 21.9 35.1l2.2 6.3 2.9-5.3c3.9-7.2 10.3-15.7 17.9-23.5 7.7-7.9 16.2-15.3 17.7-15.3s7.6 15.9 10.7 28c3.2 12.8 4.3 30.3 2.6 40.5-2.6 15-9.4 35.1-17.6 51.8l-4.4 8.9 3.2-.6c8.5-1.6 17.3-7.6 41.8-28.3 13.5-11.4 25.2-21.3 26-22 1.3-1 3 .5 10.5 9.3 4.9 5.8 9 11.1 9.1 11.7.1.7-9.9 9.7-22.3 20.2-25 21.1-33.2 29.2-36.9 36.5-1.4 2.8-2.3 5-2 5 .2 0 4.4-1.1 9.2-2.5 20.6-6 32.6-7.9 50.8-7.8 13.8 0 18.2.3 23.5 1.9l6.5 1.9 1.1 13.5c.6 7.4 1.7 17.2 2.4 21.8.7 4.8.9 8.7.4 9.1-.5.5-4 2.1-7.9 3.6-3.8 1.5-7.4 3-7.8 3.2-.5.3 1.4 1.5 4 2.8 6.5 2.9 15.5 9.4 14.7 10.6-1.1 1.8-4.6.7-16-5.1-12.6-6.5-16.1-7.2-22-4.4-4.4 2.1-7.8 7.9-9.9 16.9-.9 3.8-2 8.7-2.6 10.9l-1 3.8-6.7-6.9c-3.7-3.7-12.3-11.7-19.2-17.6l-12.5-10.7-.6 7.2c-.5 5.2-2.6 13.2-7.4 27.3-5.9 17.4-6.9 21.2-7.3 29.1-.6 11.9.9 18.1 5.7 23.6 2.1 2.4 4.1 5.6 4.5 7.2.8 3.2-1 9.6-2.7 9.6-.7 0-4.1-1.6-7.6-3.5l-6.3-3.4-7.7 8.1c-9.2 9.8-10 11.1-10.1 16.8 0 8.3 6.3 18.4 21.1 33.5 6 6.2 7 7.7 7.9 12.4.5 3 .8 5.6.6 5.9-.9.8-26.4-16.9-36.4-25.3-6.3-5.2-10.8-8.3-11.5-7.8-3.8 2.3-18.6 13-20.9 15.2-6.7 6-1.9 21.8 13.5 45.1 7.1 10.6 22 29.8 32.3 41.5 4.8 5.5 7.9 9.3 6.8 8.4-23.2-19.1-60.3-55.3-72.9-71.2l-7-8.9-4 .7c-2.2.4-8.5 1.3-14 2-12.1 1.6-15 2.7-19.3 6.8-4.8 4.6-6.6 11.7-6.5 25.7.1 17.7 6 49.5 14 75.9 1.9 6.2 3.3 11.5 3.1 11.6-.6.6-23.3-49.4-27.4-60.5-4.5-12.1-8.5-26.8-10.5-38.3-1-6.3-1.3-6.8-3.3-6.3-1.1.3-10.6 2.1-21.1 4-44.8 8.3-41.1 7.3-45.1 11.9-9 10.6-23.3 48.9-31.9 85.5-1.5 6.2-2.8 11.2-3 11-.6-.7 2.6-47.1 4-57.9.8-6.4 2.8-17 4.5-23.5 1.6-6.6 3-11.9 3-12 0-.1-5.5 1.4-12.2 3.3-25.7 7-39.3 8.7-48.2 6.1-5.9-1.8-14.1-10-15.6-15.8-2.4-9 .3-20.2 10.2-42.4 2.8-6.1 5.8-12.9 6.8-15.1l1.7-4-21.6.4c-22.2.3-71.1-2.4-71.1-4.1 0-.4 2.4-.8 5.4-.8 14.3 0 54.2-5.6 71.6-10.1 14.3-3.6 24.7-8.6 29.3-14 7.2-8.3 12.6-23.5 16.2-44.9.8-5.2 1.8-10.7 2.1-12.1.4-2.3 0-2.8-4.3-4.4-18.2-6.7-41-19.1-70.8-38.5-22.2-14.4-25.1-16.8-13.6-11 20.5 10.2 46.8 20.4 65 25.2 14.9 3.8 27.5 4.3 33.6 1.2 5.5-2.8 9.8-9.6 12.5-19.6 1.2-4.5 3.1-10.4 4.2-13.1l2.1-4.7-7.4-7.8c-14.1-14.7-30.7-37.4-47.7-64.9-4-6.5-8.2-13.3-9.3-15.1-3.7-5.7-1.4-3.5 7.7 7.5 12 14.5 33.7 36.7 43.5 44.5 10.4 8.3 21 13.8 26.6 13.8 3.9 0 4.8-.6 14.9-10.3l10.7-10.3-4-6.9c-9.4-16.2-21.4-43-30.8-69-6.1-16.8-6.1-16.9-1.3-8 19.1 35.5 37.8 60.7 50.2 68 3.9 2.3 5.5 2.7 9.9 2.3 4.4-.4 6.7-1.4 13.5-6 4.5-3.1 8.7-5.8 9.3-6 .7-.2.2-3.6-1.4-9.8-3.1-11.4-5.2-24.6-7.2-43.5-2.4-23.1-1.9-24 3-5.5 6.9 26.4 13 41.1 20.1 49 8.2 9.1 23.7 11 52.8 6.5 12.6-1.9 20.1-2.6 25.8-2.3 6.9.4 7.8.3 7.3-1.1-1-2.6-17.5-29.1-21.5-34.6-2.1-2.8-6-7.6-8.7-10.9-4.7-5.4-5.1-6.4-6.2-14-2.1-14.1-.9-27.4 3.8-40.8 2.3-6.8 10-21.8 11.1-21.8.4 0 2.7 2.1 5.2 4.7zm1376.6 7c2 1.8 2 1.8-3.3 20.3-2.9 10.2-9.8 34.5-15.3 54-17.1 60.3-28.7 101.4-36.1 127.5-3.9 13.8-7.1 25.7-7.1 26.4 0 .8-4.6 5.9-10.3 11.5-17.7 17.5-30.5 40.1-35.4 62.9l-1.7 7.8-3.6-16.3c-9.1-40.5-22.2-74.6-40-103.8l-5.2-8.5.6-9c1.5-20.2 6.9-37.2 20.8-65 28.1-56.1 71.4-95 117.8-105.5 5.2-1.2 10.9-2.5 12.5-3 1.7-.4 3.3-.8 3.6-.9.4-.1 1.6.7 2.7 1.6zm-1129.1 7.7c6 1.4 13.8 3.4 17.4 4.6 23 7.7 49.5 26.3 68.9 48.2 8.1 9.1 19.9 24.9 23.8 31.8 1 1.9 3.6 6.4 5.7 10 6.5 11 17.4 34.5 21 45.2 3.4 10.4 6.5 27.8 6.5 36.7 0 4.1-.9 6.2-5.7 14.2-18.1 30.1-33.5 71.7-41.4 112.3l-1.1 6-2.5-9.4c-6.3-24.6-17.7-44.4-35.3-61.5-4.5-4.3-8.6-9-9.1-10.4-.9-2.2-31.8-111.1-35.9-126.1-1.9-7.2-17.8-63-24.4-86.2-3.8-13.3-4.1-14.9-2.7-16.3 2-1.9 1.8-1.9 14.8.9zm1504.9 12.8c3.2 3.5 7.9 9.5 10.5 13.5 4.7 7.2 10.9 20.7 10.9 23.7s1.7 1.6 4.5-3.7c4-7.2 9.8-15.1 16.9-22.6 6.4-6.7 17.2-16.1 18.5-16.1 1.3 0 7.8 17.8 10.8 29.5 2.4 9.5 2.8 13 2.8 25.5 0 13.4-.3 15.4-3.3 26.3-4 14.2-8.9 27.1-14.8 39.1l-4.4 8.8 3.3-.6c8.2-1.6 17.5-7.7 37.8-24.8 28.3-24 30.6-25.8 31.5-25.7.8 0 17.5 19.4 18.2 21 .2.4-10.9 10.4-24.7 22.2-26 22.2-30.7 26.9-34.7 34.9-2.9 5.7-2.9 6.2-.4 4.8 3.9-2.1 29.3-8 41.3-9.6 15.6-2.1 29.8-1.4 42.7 2 9.4 2.4 9.4 2.4 12.1.5 8.4-5.9 20.3-7.8 25-4 3.2 2.5 3.1 9.3 0 14.7-2.4 4-2.5 3.7 3.2 7.1 1.5 1 2.7 2 2.7 2.4 0 1.1-7.4 7.5-16.1 13.9-7.8 5.8-20.4 12.4-28.4 15-6.6 2.1-7.1 3.1-2.6 5.1 10 4.5 23.2 15.6 32.4 27.4l4.6 5.9-3.2 1.4c-6.4 2.7-23.4 6.4-32.2 6.9-6.5.4-11.5.1-17.4-1.1-14.9-3-16.9-4-25.1-12.5-4.1-4.3-13.3-12.8-20.5-19l-13-11.2-.6 7.3c-.5 5.2-2.6 13-7.5 27.3l-6.9 20v12c0 10.2.3 12.6 2.1 16 4.3 8.2 20.4 18.6 46.9 30.2 17 7.5 16.6 7.3 12.5 6.6-1.9-.2-10.5-2.1-19-4-17.6-4-30.8-8.5-41.7-14.2l-7.6-4-7.6 8.1c-9.2 9.8-10 11.1-10.1 16.8 0 11.8 13.7 28.7 43.1 53.1 6.2 5.3 14.3 11.7 17.9 14.3 3.6 2.6 6.7 5 7 5.4.3.3-5.7-2.7-13.2-6.6-24.8-12.9-48.5-28.4-64.6-42.1-5.1-4.4-7.9-6.1-8.7-5.5-.7.5-5.5 3.9-10.6 7.6-5.2 3.7-10.2 7.4-11.2 8.2-4.1 3.2-1.3 17.4 6 30.6 7.9 14.3 24.7 37.1 40.9 55.5 4.8 5.5 7.9 9.3 6.8 8.4-23.2-19.1-60.3-55.3-72.9-71.2-6.5-8.3-7.2-8.8-10-8.3-1.6.2-7.3 1-12.5 1.6-17.4 2.1-23.1 5.4-26.5 15.5-4.8 13.7.1 51.9 11.6 91.2 2.2 7.5 3.8 13.7 3.7 13.8-.6.7-23.4-49.8-27.4-60.8-4.6-12.3-8.5-26.5-10.4-38-.7-3.7-1.3-6.7-1.5-6.7-.2 0-3.6.7-7.6 1.5-4.1.8-18.4 3.5-31.9 6l-24.5 4.6-3.7 4c-9 9.9-23.5 48.3-32.3 85.7-1.5 6.2-2.8 11.2-3 11-.6-.7 2.6-47.2 4-58.3.9-6.6 2.9-17.1 4.5-23.4 1.7-6.3 3-11.5 3-11.6 0-.1-5.5 1.3-12.2 3.2-34.2 9.4-46.6 9.6-56.3 1.1-9.3-8.2-9.6-11.8-2.1-22.3 13.8-19.1 22.9-43.7 24.3-66 .6-9.2.9-10.2 3.9-14.2 6.9-9 10.8-20.4 14.9-43.7 1.4-7.7 2.4-14 2.2-14.2-.1-.1-4.2-1.8-9.1-3.9-10.5-4.3-30.3-14.1-36.9-18.2-3.6-2.2-22.5-19.3-21.4-19.3.2 0 3.2 1.2 6.8 2.6 36.6 14.6 60 19.1 70.7 13.5 5.6-2.9 9.4-8.9 12.2-19.4 1.2-4.5 3.1-10.4 4.3-13l2-4.8-6.6-6.7c-9-9.2-22.5-26.4-32.8-41.8-10.2-15.1-26.9-41.8-26.9-42.8 0-.4 4.1 4.4 9.2 10.6 13.8 16.9 40.6 43.3 50.8 50 10.2 6.7 15 8.8 20.1 8.8 3.4 0 4.7-.9 14.5-10.3l10.7-10.3-4-6.9c-9.6-16.5-19.7-39.1-30.8-69-3-8.2-5.5-15.1-5.5-15.4 0-.3 2.1 3.2 4.6 7.9 23.9 44.6 45 70 58.1 70 4.9 0 8-1.4 17-7.6 3.5-2.3 6.8-4.4 7.4-4.6.8-.3.5-2.7-1-7.8-2.8-10.4-5.8-27.9-7.6-45.2-2.4-23.4-1.9-24.4 3-5.8 6.9 26.4 13 41.1 20.1 49 8.2 9.1 23.7 11 52.4 6.5 12.4-1.9 19.9-2.6 25.8-2.3 7.2.4 8.2.2 7.7-1.1-.4-.9-4.5-7.9-9.2-15.6-8-12.9-14-21.5-22.6-32.2-2.9-3.5-3.7-5.7-4.7-12.4-1.7-10.6-.8-23.1 2.5-34.2 2.6-9 10.8-26.7 12.4-26.7.5 0 3.5 2.8 6.7 6.2zm-910 16.8c.7 1.4 3.1 12.4 5.4 24.5 3.9 19.9 4.1 22.4 3 26.5-2.3 8.4-11.3 14-20.4 12.4-5.4-.9-10.7-6.4-13.6-14.1-1.9-4.9-2.1-7.4-1.8-16.4.3-10.4.4-10.9 5-20.1 2.6-5.3 6.1-11 7.7-12.7 2.7-2.9 3.5-3.2 8.3-2.9 4.5.3 5.4.7 6.4 2.8zm1075.4 2.5c3.1 2.8 2.4 5.7-3.4 13.5-3 4.1-6 9.1-6.7 11.3-3 9.2-7.7 11.1-13.5 5.3-2.7-2.7-3.4-4.2-3.4-7.4 0-9.3 5.5-19.3 12.8-23.2 4.4-2.4 11.3-2.1 14.2.5zm-2258.3 14.2c7.6 3.6 6.9 8.8-2.2 16.8-3.5 3.1-8.2 8.5-10.3 11.8-6.6 10.5-9.3 11.6-15.5 6.7-7.3-5.8-4.5-20 6.1-30.3 6.5-6.3 15-8.3 21.9-5zM1824.5 1833c64.5 51.4 117.2 93.6 117.1 93.7-.1.2-4.9-.7-10.7-1.8-20-4.1-44.6-2.4-64.5 4.4-19.9 6.8-36.3 16.9-51.4 31.5l-9.5 9.3-3-1.6c-6.3-3.4-18.6-12.7-19.5-14.8-.4-1.2-2.7-8-5.1-15.1-5.2-15.9-12.8-33.9-21.9-51.3-13.1-25.3-25.5-41.9-45-60.6l-11.8-11.2-1.3-8c-2.2-13.4-1.6-37.8 1.4-52.8 1.8-9.3 3-13.2 4.3-14.2 1.1-.8 2.3-1.3 2.7-1.2.4.1 53.6 42.3 118.2 93.7zm-404.3-80.3c10.1 9.4 16.3 15.9 21.2 22.3 4.8 6.3 10.6 15.6 10.6 17 0 .6.4 1 .9 1s1.7-2.4 2.7-5.3c3.5-10.9 10.1-21.7 20.6-33.9 3.3-3.8 6.4-6.6 6.9-6.1 1.6 1.6 8.6 16.8 10.7 23.3 3.5 10.6 4.3 15.9 4.3 26.5 0 15.9-1 19.4-8.4 28.3-8.1 9.8-15.6 21.2-29.2 44.2-.2.3 4.7.6 10.8.6 6.6.1 16.2 1 23.2 2.2 17.1 3 25.9 3.6 33.5 2.2 9.1-1.6 15.4-4.6 19.4-9.1 7-7.6 14.5-27 20.7-52.9 1.7-7.1 3.3-13 3.5-13 .2 0 .2 2.4-.1 5.2-.3 2.9-1.2 12.5-2 21.3-1.5 15.6-5 35.2-7.8 44.7-1.3 4.2-1.3 4.7.1 5.3.9.3 5.2 3.1 9.7 6.1 10.2 6.9 13.6 7.6 20.9 4 12.4-6.1 32.5-32.5 50.3-66.1 2.9-5.5 5.3-9.5 5.3-8.9 0 1.2-11 30.5-16.5 43.9-4.3 10.5-16.2 34.4-20.5 41.3l-2.9 4.7 3.7 3.9c2 2.1 7.2 7 11.6 10.8 7.4 6.6 8 6.9 11.5 6.3 9.1-1.5 22.9-10.6 37.5-24.5 9.9-9.4 26.5-27.5 34.7-37.9 3.5-4.4 6.5-7.8 6.7-7.7.4.5-22.8 37.3-30.1 47.8-9.9 14.2-19.6 26.5-28.1 35.6l-7.8 8.2 3.2 10.3c6.4 20.6 8.1 23.8 14.5 27.1 3.3 1.7 5.7 2.1 13.5 2 5.2-.1 12.7-.9 16.5-1.8 16.8-4 45.6-14.7 64.9-24.2 6.1-2.9 11.1-5.2 11.3-5 .4.4-31.4 21.1-45.9 29.9-12.6 7.6-34 18.3-43.5 21.7-5 1.8-6.3 2.7-6.3 4.4 0 3.2 4.8 28.4 6.6 34.5 4.1 14.3 11.1 25 19.2 29.4 14.6 7.9 47.4 14.7 85.6 17.6 7 .6 13 1.2 13.2 1.4.3.2-5.3.9-12.3 1.5-27.4 2.5-48.3 3.4-64.1 2.7l-16.3-.7 1.4 3.4c.8 1.8 4.2 9.4 7.5 16.9 13.4 30.1 13.9 41.7 2.3 52.2-5.4 4.8-10.4 6.1-22.6 5.4-7.3-.4-14.7-1.7-27.7-5.1-9.8-2.5-17.9-4.6-18.1-4.6-.2 0 .6 3.5 1.9 7.8 3.8 13.3 6.4 31.7 7.9 56.7.8 13.2 1.5 25.1 1.4 26.5 0 1.4-2.2-6.1-4.9-16.5-10.8-42.4-23.8-74.1-33-80.6-1.6-1.2-12.9-3.7-32.5-7.4-16.5-3.1-30.6-5.7-31.4-5.8-1.1-.1-1.9 2.4-3.2 9.5-2.1 11.9-6.8 28.1-11.9 40.8-7.1 17.8-30.3 66.4-25 52.5 2.5-6.5 9-31.8 11.9-46 6.1-30.2 6.6-49.8 1.7-59.9-3.8-7.7-8.7-10.1-24.9-12.1-7-.9-13.3-1.8-14-2.1-.9-.3-4.2 3.1-8.8 8.8-14 17.5-31.3 34.5-72.3 70.7-1.6 1.4 1.6-2.6 7.1-8.9 26.7-30.6 44.6-58.4 47.5-73.6 1.7-9.2 1.1-10.2-9.9-17.9-5.4-3.8-10.8-7.7-12-8.8l-2.2-2-6.3 5.5c-16.9 14.7-39.6 29.6-68.1 44.6-5.4 2.9-10 5.2-10.4 5.2-.3 0 2.5-2.3 6.3-5.2 30.6-23 51.9-44.3 58.6-58.3 4.8-10.3 3.9-13.5-7.5-25.5l-7.8-8.3-11.7 5.6c-6.4 3-15.8 6.7-20.7 8.1-9.3 2.7-35.6 8.6-37.8 8.6-.7-.1 2.9-1.8 7.8-3.9 32.5-13.8 48.9-24.2 53.7-33.9 2-4.1 2.3-6.1 2.2-15.2-.1-11.3-.5-12.9-9.8-39.5-5-14.4-6.7-25.3-4.6-28.2.8-1 0-.5-1.6 1.2-1.7 1.6-9.2 8.4-16.7 14.9-7.6 6.6-15.7 14.3-18.1 17.1-3.9 4.5-5.3 5.4-13.2 8-8.4 2.8-9.8 3-24.4 2.9-15.6 0-21.8-1.2-35.3-6.3l-2.8-1.1 3.1-4.5c3.4-5 13.9-15.9 18.5-19.4l3-2.3-4.5-4.1c-14.9-13.4-40.4-25.5-61.9-29.3-16.1-2.8-30-2.9-44.4-.2-7 1.3-12.6 2.1-12.5 1.8.2-.4 13-10.8 28.4-23.1 65-51.7 194.3-154.8 199.8-159.2 3.3-2.6 6.3-4.7 6.7-4.7.4 0 4.1 3 8.1 6.7zm1478.4 11.7c2.1 2.1 3.4 4.4 3.4 5.9 0 4.7-13.1 26.3-18.6 30.6-3.9 3.1-8.6 2.7-12.8-.9-8.2-7.2-7-20 3-31 4.6-5.1 10.7-8 16.8-8 4.1 0 5.3.5 8.2 3.4zm-2734.3 14.9c1.8.8 3.9 2.2 4.7 3.1 1.3 1.6 1.1 2.1-2 4.7-1.9 1.5-6 4.2-9.1 5.8-5.9 3.2-21.7 8.6-22.6 7.7-1-.9 1.7-6.9 5-11.2 3.3-4.3 10.7-9.9 14.2-10.7 3.8-.9 6.6-.7 9.8.6zm212.2 61.2c6.4 6.3-.8 19.7-15 28.2-9.8 5.8-15.8 6.7-19.4 2.9-5.6-6-3.3-15.4 5.9-24 9.9-9.1 23.2-12.5 28.5-7.1zm1726.3 37.4c2.4 1.7 3.2 3 3.2 5.3 0 2.5-1.4 4.4-7.9 10.7-4.3 4.2-9 9.7-10.5 12.2-5.5 9.7-9.4 10.9-15.5 4.8-2.7-2.7-3.1-3.7-3.1-8.8 0-9.7 7.3-21 16.5-25.3 5.3-2.5 13-2 17.3 1.1zm-1189.9 7.2c6.1 2.1 6.1 6.5-.2 14.2-1.8 2.2-5 7.6-7.2 12.1-3.6 7.3-4.3 8.1-7.1 8.4-2.3.2-3.9-.5-6.2-2.6-2.8-2.7-3.2-3.6-3.2-8.5 0-10.1 4.7-18.9 12.3-22.6 4.8-2.4 7.1-2.6 11.6-1zm-773.4 92c3.9 3.1 9 7.8 11.4 10.5 2.4 2.7 8.1 8.3 12.7 12.4s10.9 11.2 14.1 15.7c24.9 35.1 64.1 66.3 117.3 93.2 88.7 45 217 81.9 386.3 111.1 82.7 14.3 200.1 29.7 287.2 37.5 9.4.9 20.6 2.2 25 3.1 4.4.8 17.2 1.9 28.5 2.4s35.1 2.1 53 3.5c83.4 6.4 190.8 11.8 308 15.4 14 .4 21.8.9 17.3.9l-8.3.2v20.9l15.8.4c8.6.2-37.8.3-103.3.1-65.4-.1-131.6-.7-147-1.3-97.1-3.7-120.4-4.8-183-8.7-352.2-22-618.5-78.2-752.7-158.8-62.3-37.3-95.4-77.2-103.5-124.4-1.8-10.6-2.4-43.7-1-50.6l.8-3.9 7.2 7.4c4 4.1 10.4 10 14.2 13zm1711.8-13.8c1.8.8 3.9 2.2 4.7 3.1 1.3 1.6 1.1 2.1-2 4.7-5.4 4.4-13.7 8.5-23.3 11.4-4.9 1.5-9 2.5-9.3 2.3-.9-1 5-11 8.7-14.8 6.9-7.1 14.5-9.5 21.2-6.7zm-711.3 7.2c5.9 3.1 6.6 9 1.9 17.4-5 8.9-12.9 19.8-15.4 21.5-5.2 3.4-12.8.8-16-5.4-2.1-4-1.9-12.6.4-17.7 2.6-5.7 9.7-13.2 14.6-15.4 4.9-2.3 10.6-2.4 14.5-.4zm-185.6 41.6c5.1 4 2.7 13.8-5.4 21.9-5.6 5.6-17.5 12-22.6 12-7.6 0-11.3-7.7-7.9-16.5 5.1-13.5 27.2-24.2 35.9-17.4zm1109.1 12.4c7 6.9-2.2 21.7-18.8 30-8.1 4.1-11.6 4.4-15.2 1.2-5.7-5-3.9-15.2 4.3-23.4 9.5-9.5 24.2-13.4 29.7-7.8zM276.1 2259c34.5 3.5 66.2 17.2 96.9 41.7 32.6 26.1 53.1 58.7 65.6 104.2 6.2 22.6 6.9 28.4 6.9 60.6 0 28.3-.4 33.7-5 81-.8 8.2-2 24.8-2.7 36.8-1.8 33.3.8 61.2 7.6 80.4 10 28.1 9.9 27.5 9.9 35.8.1 9.5-1.2 14.5-5.2 20.6-8 11.9-21.5 13-29.3 2.5-4.7-6.3-10.5-19.3-13.2-29.6-5.3-19.6-6.1-28.6-6.1-67 .1-32.4.4-39.5 4-82 3.4-40.5 3.9-50.4 3.9-77 .1-27.9-.1-31.4-2.1-40.5-16.1-72.6-68.7-126.1-135.8-138.1-12.1-2.1-41.1-2.5-52.5-.6-24.5 4.1-47.6 12.7-69.7 25.8-9.6 5.7-16.7 7-20.2 3.5-1.1-1.1-2.1-2.5-2.1-3 0-4.3 27.4-22.8 50.5-34.2 34.9-17.1 67.4-24 98.6-20.9zm373.8 102c43.9 10.8 76.1 52.8 76.4 99.5.1 8.8-.2 10.6-2.1 13.7-4.4 7.1-16 10-21.2 5.3-1-.9-4.4-8.2-7.5-16.3-16.8-42.9-32.4-62.5-57.1-71.8-11.6-4.3-20.4-5.6-39.5-5.8-19.3-.1-20-.3-21.9-6.1-.9-2.6-.8-4.1.4-6.8 1.2-3.1 2.4-3.9 9.5-6.6 7.5-2.9 20-6.3 27.6-7.5 6.7-1 27.2.3 35.4 2.4zm317.1 37.4c30.5 7 57.1 23.7 76.6 48 8 10 15.7 21.5 30.4 45.6 12.9 21.1 18.6 29.3 27.6 40 14.4 17.2 33.6 29.9 54.3 36 8.8 2.6 11.7 4.3 13.7 8.1 3.2 6.2 1.2 14.7-5.2 21.8-3.8 4.2-5.7 5.4-11.2 7.2-3.8 1.1-10.8 2.3-16.2 2.6-27.6 1.6-55-14.8-78.1-46.7-9.9-13.6-14.5-21.8-25.6-46-16.5-36-23.7-48.2-36-61-20.6-21.7-52.5-35-83.5-35-13.2 0-20.3 1-32.5 4.6-12.8 3.8-12.8 3.9-15.3 1.4-2.3-2.3-2-5 .9-8.4 1.8-2.1 14.8-8.4 26.1-12.6 8.7-3.2 22.6-6.7 32-8 10.5-1.4 30.1-.3 42 2.4zm2103.6 19.5c3.3 1.6 7.8 4.4 9.9 6.2 5 4.4 10.9 13.6 12.3 19.1.7 2.9 1.4 59 2.2 175.8l1.2 171.5-3.9 9c-2.1 4.9-6.1 12.4-8.8 16.5-6 9-22 25.8-33 34.7-45.4 36.5-120.9 70.5-225.5 101.7-34.8 10.4-87.1 23.9-88.1 22.8-.3-.4-1.4-7-2.3-14.6-2.1-17.6-6.4-39.6-12.6-65.1-2.7-11-5.6-25-6.4-31-7.3-53-8-148-1.7-221.3.8-9.7 1.9-9.2-12.9-5.8-5.8 1.3-10.6 2.3-10.7 2.2-.8-.7 4.2-53.2 6.7-70.9 5.7-40 12.9-62.5 21.5-67.4 10.5-6 27.3-9.2 38.4-7.4 16.3 2.7 30.3 15.6 42 38.8 7.1 14.1 13.2 32.8 27 82.3 13.4 47.9 24.9 72.3 41.1 87.3 3.8 3.5 9.2 9.8 12 14 14.7 22 34.7 30 60 24.2 23.9-5.5 40.4-21 54.5-50.9 11.1-23.6 18.9-52.2 32.4-119.1 4.5-22 9-43.6 10-48 1.1-4.4 1.8-8.1 1.6-8.3-.2-.2-3.6 1.8-7.7 4.5-10 6.8-22.9 14.5-23.4 14.1-1.4-1.4 14.8-69.4 19.8-83.1 10.4-28.8 26.4-40.3 44.4-31.8zm-1188.9 44.6c36.6 12.2 65.2 35.4 80.7 65.4 8.7 16.8 13.6 35 13.6 50.2 0 6.6-.3 8.2-2.2 10.4-4.1 4.7-14.2 5.1-19 .8-3.1-2.8-4.4-5.9-7.2-17.5-11-45.8-41.5-84.8-79.6-101.8-4.1-1.8-8.3-4.2-9.3-5.4-1.8-2-1.8-2.1.3-3.8 3.5-2.8 10.8-2.3 22.7 1.7zm-457.4 6.8c18.2 4.8 34.6 14.6 49.3 29.4 18.7 18.9 33.9 44.3 57.4 96.3 5.6 12.4 13.1 29 16.7 37 10 22 29.5 60.7 36.4 72.2 7.9 13.2 14.3 21.4 17.9 23.3 4.2 2.2 9.6 9 11 14 1.7 6.2.8 12-2.8 16.4-6 7.5-15.4 7.8-29.2 1-14.6-7.2-27.2-21.9-40.3-46.9-8.9-16.8-13.9-28.9-37.7-90.4-25.5-65.9-42.1-96-65.2-118.8-16.2-15.8-32.6-24.1-53.6-26.8-4.6-.6-9.5-1.5-10.8-2-2.7-1.1-4.1-3.7-2.8-5 1.9-1.9 12.4-2.9 27.9-2.6 13.3.3 17.6.8 25.8 2.9zm1096.7-.3c36.8 10.6 59.2 45.6 73.9 115.5 3.9 18.6 8.8 51.8 10.1 68.5.5 7.4 1.4 18.1 2 23.8 2.3 24 3.2 63.6 2.7 116.7-.4 46.6-.7 55.8-2.1 60.5-3 10.1-9.5 46.5-12 67.1-3.6 28.4-4.9 50.7-4.1 68.4.4 8.2.7 15.4.7 16-.2 3.2-135.2 24.4-230.6 36.1l-4.8.6.6-4.8c.3-2.7 2.2-20.7 4.1-39.9 1.9-19.3 4.6-45.8 6-59 13.5-128.6 24.1-245.3 22.5-246.9-.3-.2-5.3.2-11 .9-14 1.9-13.3 2-12.6-1.3.3-1.5 1.2-14.4 2.1-28.7.9-14.3 2-33 2.5-41.5 1.6-27.2 7-48.6 17.7-70.8 20.8-42.9 56.3-74.2 93.3-82.3 11.2-2.5 28.3-2 39 1.1zm-374 89c18.5 6.2 32 17.2 42 34 9.9 16.8 14.2 43.3 25.9 157.5 1.6 15.9 3.2 31.9 3.5 35.5.3 3.6 1.7 18 3 32 1.4 14 2.8 29.3 3.1 34 .4 4.7 1.7 20.2 3 34.5s2.6 29.4 2.9 33.5c.3 4.1 1.9 23.9 3.6 44 4.6 57.1 7.1 91.2 6.8 91.6-1 .9-76.6 7.7-126.3 11.4-14.8 1.1-30.7 2.3-35.1 2.6l-8.1.7 1.5-7.4c1.1-5.3 1.5-13.2 1.5-27.9 0-20.3-1.8-38.1-6.8-67-3.1-17.9-3.8-34.7-3.2-81 .3-25 1.1-52.9 1.6-62 2.9-44.5 4.4-66.1 6-83 1-10.2 1.7-18.6 1.6-18.7-.1-.2-5.5.1-12.1.6-6.5.5-12 .8-12.2.6-.6-.6 5-54.9 7.9-76.5 5.9-43.3 10.5-59.2 21-71.3 7.8-9 22.6-17.6 34-19.6 9-1.6 27.4-.6 34.9 1.9zM56.5 2813.5c1.4 1.3 2.5 3.5 2.5 4.7 0 6.9 5.3 21.7 15.7 44.3 8.1 17.4 9.8 23.2 8.2 28.9-3 10.9-22.9 10-31.5-1.3-4.7-6.1-11-19.1-13.1-27.1-3.4-12.6-1.6-39.3 3-46.4 1.8-2.6 7.2-5.5 10.5-5.6 1.3 0 3.4 1.1 4.7 2.5zm636.3 83.9c2 2.3 3.4 5.3 4 8.8 7.4 40.5 10.2 60 10.2 71 0 10.6-1.5 15.4-6.6 20.5-6.9 6.9-14.3 6.8-25.1-.2-16.2-10.7-20.7-37-11.7-68.4 3.3-11.4 10.2-25.8 14.9-30.9 3.1-3.5 4.3-4.2 7.5-4.2 3.1 0 4.4.7 6.8 3.4zm1301.1 61.5c6.9 6.9 11 24.4 11.8 50.2.7 24.3-1.5 31.6-11.1 36-16.6 7.6-37.2-8.6-40.9-32-2-13.2 1.4-26.1 11.3-42.6 7.4-12.3 11.4-15.4 19.8-15.5 4.7 0 5.5.3 9.1 3.9zm-225.6 475.8c-1.8.2-4.8.2-6.5 0-1.8-.2-.4-.4 3.2-.4s5 .2 3.3.4zm-49.5 1c-6.5.2-17.1.2-23.5 0-6.5-.1-1.2-.3 11.7-.3 12.9 0 18.2.2 11.8.3z"/>
  <path d="M1335.2 434.1c1.2 2.2 2.8 4.5 3.6 5.1.7.7-.1-1.2-1.9-4-3.8-6.2-5-6.9-1.7-1.1zm4.8 7.2c0 1 5.1 8.7 5.7 8.7.5 0-1.1-2.7-4.4-7.5-.7-1.1-1.3-1.6-1.3-1.2z"/>
  <path d="M1347.7 454.1c1 1.7 2.4 3.6 3.2 4.2.8.7.2-.7-1.4-3.1-3.2-4.9-4.5-5.7-1.8-1.1zm4.3 6.2c0 1 5.1 8.7 5.7 8.7.5 0-1.1-2.7-4.4-7.5-.7-1.1-1.3-1.6-1.3-1.2zm6.9 11.2c.5 1.1 1.7 2.9 2.6 4l1.6 2-1-2c-.5-1.1-1.7-2.9-2.6-4l-1.6-2 1 2zm7.5 12.2c.9 1.7 2.1 3.5 2.7 3.9 1.3.8-.1-2.1-2.6-5.1-1.5-1.9-1.5-1.8-.1 1.2zm5.1 8.2c.8 1.7 1.9 3.3 2.5 3.6.5.3.1-1-1.1-2.9-2.5-4.3-3.6-4.8-1.4-.7zm7.4 11.6c.5 1.1 1.7 2.9 2.6 4l1.6 2-1-2c-.5-1.1-1.7-2.9-2.6-4l-1.6-2 1 2z"/>
  <path d="M1384.7 513.1c1 1.7 2.4 3.6 3.2 4.2.8.7.2-.7-1.4-3.1-3.2-4.9-4.5-5.7-1.8-1.1zm7 11c1 1.7 2.4 3.6 3.2 4.2.8.7.2-.7-1.4-3.1-3.2-4.9-4.5-5.7-1.8-1.1zm4.3 6.2c0 1 5.1 8.7 5.7 8.7.5 0-1.1-2.7-4.4-7.5-.7-1.1-1.3-1.6-1.3-1.2zm7.8 13.2c.6 1.1 2.1 3.1 3.3 4.5l2.1 2.5-1.9-3.3c-1-1.9-2.4-3.9-3.2-4.5-1.2-1-1.2-.9-.3.8zm6.1 9c.5 1.1 1.7 2.9 2.6 4l1.6 2-1-2c-.5-1.1-1.7-2.9-2.6-4l-1.6-2 1 2zm6.7 11.4c1 1.8 2.5 3.8 3.2 4.4.8.6.4-.6-.8-2.6-1.2-2-2.7-4-3.2-4.4-.6-.3-.2.9.8 2.6zm4.4 6.7c0 .5 1.2 2.2 2.6 3.9l2.6 3-2.3-3.5c-2.9-4.5-2.9-4.5-2.9-3.4z"/>
  <path d="M1427.5 580.9c.8 1.7 1.9 3.3 2.5 3.6.5.3.1-1-1.1-2.9-2.5-4.3-3.6-4.8-1.4-.7zm5.5 8.3c0 .9 19.5 31.9 21.9 34.8 1.2 1.4-2.6-5.2-8.5-14.5-11.8-18.8-13.4-21.2-13.4-20.3zm374.3-153c-6.6 8.8-10.3 14.5-7.1 10.8.7-.9 4-5.1 7.2-9.5s6.3-8.6 6.9-9.3c.5-.6.7-1.2.4-1.2-.2 0-3.6 4.2-7.4 9.2zm-13.9 19c-2.6 3.5-5.2 6.9-5.8 7.7-.8 1.1-.8 1.3.1.8 1.3-.8 11.6-14.7 10.9-14.7-.3 0-2.6 2.8-5.2 6.2zm-9.6 13c-5.1 6.9-9.9 14.2-7.5 11.4 3.2-3.7 10.9-14.6 10.4-14.6-.3 0-1.5 1.5-2.9 3.2zm-12.5 17c-2.2 2.6-3.7 4.8-3 4.8.3 0 1.7-1.6 3.1-3.5 3-3.9 3-4.6-.1-1.3zm-5.5 7.5c-1.9 2.3-3.1 4.3-2.4 4.3.2 0 1.4-1.4 2.6-3 2.3-3.3 2.2-4-.2-1.3zm-9.5 13c-5.9 7.9-8.5 11.7-6.6 9.8.6-.6 3.4-4.2 6.3-8 2.9-3.9 5.7-7.6 6.3-8.3.5-.6.7-1.2.4-1.2-.4 0-3.2 3.5-6.4 7.7zm-15.4 21c-8 10.8-9.5 13.2-6.2 9.3 3.2-3.6 14.4-19 13.9-19-.3 0-3.8 4.4-7.7 9.7zm-10.6 14.5c-4.3 5.7-6.6 9.1-5.8 8.6 1.2-.7 7.8-9.8 7.2-9.8-.3 0-.9.6-1.4 1.2zm-9.3 12.3c-1.3 1.4-2.1 2.7-1.8 3.1.3.3 1.6-.9 2.8-2.5 2.6-3.7 2.2-4-1-.6zm-4.1 6.2c-2.9 3.5-4.1 5.3-3.6 5.3.2 0 1.7-1.6 3.1-3.5 2.8-3.6 3.1-4.9.5-1.8zm-7.6 10c-3.6 4.6-4.9 6.8-3.7 6 1.2-.7 7.7-9.7 7-9.7-.2 0-1.7 1.7-3.3 3.7zm-6.4 9c-2.9 3.5-4.1 5.3-3.6 5.3.2 0 1.7-1.6 3.1-3.5 2.8-3.6 3.1-4.9.5-1.8zm-6.1 8c-1.8 2.1-3.1 4.3-2.5 4.3.2 0 1.3-1.4 2.5-3 2.5-3.3 2.4-4.1 0-1.3zm-115.2 1.9c-.4 1.4-.5 2.8-.3 3.1.3.2.8-.8 1.1-2.3.4-1.4.5-2.8.3-3.1-.3-.2-.8.8-1.1 2.3zm110.3 5.1c-2.9 3.5-4.1 5.3-3.6 5.3.2 0 1.7-1.6 3.1-3.5 2.8-3.6 3.1-4.9.5-1.8zm-6 8c-3.2 3.9-4.4 5.7-3.2 5 1.3-.8 5.7-6.7 5-6.7-.2 0-1 .8-1.8 1.7zm-10.1 13.5c-6 8.2-8.2 11.7-4.4 7.4 3.3-3.9 10.8-14.6 10.2-14.6-.2 0-2.8 3.3-5.8 7.2zm-9.5 13c-2.2 2.6-3.7 4.8-3 4.8.3 0 1.7-1.6 3.1-3.5 3-3.9 3-4.6-.1-1.3zm-5.5 7.5c-2.6 3.1-6.2 8.7-5.2 8.1 1.1-.7 7.7-9.8 7.1-9.8-.2 0-1.1.8-1.9 1.7zm-8 11c-1.8 2.1-3.1 4.3-2.5 4.3.2 0 1.3-1.4 2.5-3 2.5-3.3 2.4-4.1 0-1.3zm-5.5 7.5c-1.1 1.3-2.4 3-2.8 3.8-.8 1.6-.6 1.4 3.4-3.3 1.4-1.5 2.2-2.7 1.9-2.7-.2 0-1.4 1-2.5 2.2zm-312.8 105.3c-1.6.7-2.3 1.4-1.5 1.4.8 0 2.9-.6 4.5-1.4 1.7-.7 2.3-1.4 1.5-1.4-.8 0-2.8.6-4.5 1.4zm-21.3 6.2c-2.4.8-4.1 1.7-3.9 1.9.2.2 2.8-.5 5.8-1.5 3-1.1 4.7-2 3.9-1.9-.8 0-3.4.6-5.8 1.5zm-21.5 6.5c-3.2 1.1-5.7 2.2-5.4 2.4.2.2 3.5-.7 7.3-2 3.8-1.4 6.2-2.4 5.4-2.4-.8 0-4.1.9-7.3 2zm-20 6c-3.2 1.1-5.7 2.2-5.4 2.4.2.2 3.5-.7 7.3-2 3.8-1.4 6.2-2.4 5.4-2.4-.8 0-4.1.9-7.3 2zm-20.7 6.3c-3.6 1.3-6 2.4-5.4 2.4.5.1 4.1-1 8-2.3 3.8-1.4 6.2-2.4 5.4-2.4-.8 0-4.4 1-8 2.3zm-20 6c-3.6 1.3-6 2.4-5.4 2.4.5.1 4.1-1 8-2.3 3.8-1.4 6.2-2.4 5.4-2.4-.8 0-4.4 1-8 2.3zm-20 6c-3.6 1.3-6 2.4-5.4 2.4.5.1 4.1-1 8-2.3 3.8-1.4 6.2-2.4 5.4-2.4-.8 0-4.4 1-8 2.3zm-21.5 6.5c-4.4 1.6-7.5 2.9-7 2.9.6.1 4.9-1.2 9.5-2.8 4.7-1.6 7.8-2.9 7-2.9-.8 0-5.1 1.2-9.5 2.8zm-20 6c-4.4 1.6-7.5 2.9-7 2.9.6.1 4.9-1.2 9.5-2.8 4.7-1.6 7.8-2.9 7-2.9-.8 0-5.1 1.2-9.5 2.8zm-18.4 5.2c-3.4 1-6.1 2.2-5.8 2.5.6.5 13.7-3.5 13.7-4.3 0-.6-.9-.4-7.9 1.8zm-24.9 7.5c-2.4.8-4.2 1.7-4 1.9.5.4 10.8-2.6 10.8-3.2 0-.7-2.4-.3-6.8 1.3zm771.6-60.5c.5.5 1.6.8 2.3.6.8-.3.3-.7-1-1.1-1.7-.4-2.1-.3-1.3.5zm9 2.5c.7.3 1.6.2 1.9-.1.4-.3-.2-.6-1.3-.5-1.1 0-1.4.3-.6.6zm7.7 2.3c2.8 1 5.7 1.8 6.5 1.8.8 0-.7-.8-3.5-1.8-2.7-1-5.7-1.8-6.5-1.8-.8 0 .8.8 3.5 1.8zm19.9 5.6c3.9 1.3 7.5 2.4 8 2.3.6 0-2-1.1-5.8-2.5-3.9-1.3-7.5-2.4-8-2.3-.6 0 2 1.1 5.8 2.5zm23.1 6.5c4.9 1.6 9.4 2.8 9.9 2.6 1-.3-16.5-5.8-18-5.6-.5.1 3.1 1.4 8.1 3zm13.3 3.6c.7.3 1.6.2 1.9-.1.4-.3-.2-.6-1.3-.5-1.1 0-1.4.3-.6.6zm9.6 2.9c3.9 1.3 7.5 2.4 8 2.3.6 0-2-1.1-5.8-2.5-3.9-1.3-7.5-2.4-8-2.3-.6 0 2 1.1 5.8 2.5zm19.1 5.4c2.8 1 5.7 1.8 6.5 1.8.8 0-.7-.8-3.5-1.8-2.7-1-5.7-1.8-6.5-1.8-.8 0 .8.8 3.5 1.8zm25 7.1c5 1.6 9.4 2.7 9.9 2.6 1-.3-16.5-5.8-18-5.6-.5 0 3.2 1.4 8.1 3zm21 5.9c2.8 1 5.7 1.8 6.5 1.8.8 0-.7-.8-3.5-1.8-2.7-1-5.7-1.8-6.5-1.8-.8 0 .8.8 3.5 1.8zm21 6c2.8 1 5.7 1.8 6.5 1.8.8 0-.7-.8-3.5-1.8-2.7-1-5.7-1.8-6.5-1.8-.8 0 .8.8 3.5 1.8zm23.5 6.5c4.1 1.4 8 2.5 8.5 2.4 1.6-.1-8.8-3.6-12.6-4.3-1.9-.3 0 .6 4.1 1.9zm22.5 6.5c2.8 1 5.7 1.8 6.5 1.8.8 0-.7-.8-3.5-1.8-2.7-1-5.7-1.8-6.5-1.8-.8 0 .8.8 3.5 1.8zm19.9 5.6c3.9 1.3 7.5 2.4 8 2.3.6 0-2-1.1-5.8-2.5-3.9-1.3-7.5-2.4-8-2.3-.6 0 2 1.1 5.8 2.5zM497 1198c.6 1.1 1.3 2 1.6 2 .2 0 0-.9-.6-2s-1.3-2-1.6-2c-.2 0 0 .9.6 2zm6 10.4c0 .2.8 1 1.8 1.7 1.5 1.3 1.6 1.2.3-.4s-2.1-2.1-2.1-1.3zm4.2 8.6c0 1.4.2 1.9.5 1.2.2-.6.2-1.8 0-2.5-.3-.6-.5-.1-.5 1.3zm249.6 108.7c.7.3 1.6.2 1.9-.1.4-.3-.2-.6-1.3-.5-1.1 0-1.4.3-.6.6zm2 4.5c-2.4 5.6-1.7 5.8 1 .3 1.2-2.5 1.8-4.5 1.4-4.5-.4 0-1.5 1.9-2.4 4.2zm-6.1 15.6c-1.5 3.7-2.7 7.2-2.6 7.7 0 .6 1.3-2.3 3-6.4 1.6-4 2.8-7.5 2.6-7.7-.2-.2-1.6 2.6-3 6.4zm-7.2 21.7c-.9 3.2-1.4 5.9-1.2 6.1.2.3 1.1-2.1 2-5.3.9-3.1 1.5-5.8 1.3-6.1-.2-.2-1.2 2.2-2.1 5.3zm242.3 1.2c.6.2 1.8.2 2.5 0 .6-.3.1-.5-1.3-.5-1.4 0-1.9.2-1.2.5zm6.5 1c.9.2 2.3.2 3 0 .6-.3-.1-.5-1.8-.5-1.6 0-2.2.2-1.2.5zm6.5 1c.6.2 1.8.2 2.5 0 .6-.3.1-.5-1.3-.5-1.4 0-1.9.2-1.2.5zm6.6 1.2c.3.4-.1 1.7-.9 2.7-.8 1-1.4 2.3-1.5 2.9 0 .5.9-.4 2-2 2.2-3.4 2.5-4.5.9-4.5-.5 0-.8.4-.5.9zm-267.2 17.3c-1.2 4.8-2.2 9.3-2.1 10 0 .7 1.2-2.8 2.5-7.7 1.3-5 2.2-9.4 2.1-10-.2-.5-1.3 3-2.5 7.7zm261.6-6c-2.2 3.4-4.2 7.4-3.1 6.3 1.4-1.5 5.5-8.5 5-8.5-.3 0-1.1 1-1.9 2.2zm-7.1 12.4c-1.5 2.5-2.7 4.8-2.7 5.2 0 .4 1.4-1.5 3.1-4.2 1.7-2.6 2.9-5 2.7-5.2-.2-.1-1.6 1.7-3.1 4.2zm-4.9 8.6c-2.2 3.4-4.2 7.4-3.1 6.3 1.4-1.5 5.5-8.5 5-8.5-.3 0-1.1 1-1.9 2.2zm-253.6 9.8c0 1.9.2 2.7.5 1.7.2-.9.2-2.5 0-3.5-.3-.9-.5-.1-.5 1.8zm246.4 2c-1.4 2.2-2.6 4.3-2.6 4.7 0 .4.6-.1 1.3-1.2 3.3-4.8 4.9-7.5 4.4-7.5-.2 0-1.6 1.8-3.1 4zm-62 2.9c.9 3.3 4.4 10.9 4.4 9.5 0-.6-1.1-3.6-2.5-6.5-1.4-3-2.2-4.3-1.9-3zm-186.1 8.7c-.8 9.7-.1 20.8 1.5 26 .6 2 .7 1.2.2-2.6-.4-3-.6-11.7-.5-19.3.1-7.5 0-13.7-.2-13.7s-.6 4.3-1 9.6zm238.2 3c-3.2 4.1-5.3 7.3-4.7 6.9.9-.6 8.9-10.7 10.4-13.3 1.8-3-.3-.6-5.7 6.4zm-46.7 2.3c0 .6.4 1.3 1 1.6.6.3.7-.1.4-.9-.7-1.8-1.4-2.1-1.4-.7zm2.9 4.9c.6 1.2 1.6 2.4 2.2 2.8.8.4.8.1 0-1.4-.6-1.2-1.6-2.4-2.2-2.8-.8-.4-.8-.1 0 1.4zm32.5 5.4-2.9 3.3 3.5-3c1.9-1.7 3.7-3.1 3.9-3.3.2-.1 0-.2-.5-.2-.6 0-2.3 1.5-4 3.2zm-27.9.7c5 5.8 14.8 7.7 21.5 4.1 1.9-1.1 3.1-1.9 2.5-1.9-.5 0-2.1.6-3.5 1.4-5.3 3-13.8 1.4-20-3.9l-2.5-2.1 2 2.4zm-195.3 24.6c0 1.6.2 2.2.5 1.2.2-.9.2-2.3 0-3-.3-.6-.5.1-.5 1.8zm1.5 10c.3 3.8.9 10.1 1.3 14 .7 6.9.7 6.9.8 1.5 0-3-.6-9.3-1.3-14-1.4-8.5-1.4-8.5-.8-1.5zm2.6 30.5c0 4.7.2 6.6.4 4.2.2-2.3.2-6.1 0-8.5-.2-2.3-.4-.4-.4 4.3zm-1.3 13.7c0 2.7-.7 7.9-1.5 11.8-1.9 8.7-1.8 10.7.1 4 1.6-5.5 3.1-20.5 2-20.5-.3 0-.6 2.1-.6 4.7zm-69 14.5c0 1.9 3 10.1 3.6 9.6.1-.2-.6-2.8-1.6-5.8-1.1-3-1.9-4.7-2-3.8zm61.7 15.9c-1.5 2.7-2.5 4.9-2.2 4.9.6 0 5.8-9 5.4-9.5-.2-.2-1.6 1.9-3.2 4.6zm-54.7.6c1.3 1.8 2.6 3 2.9 2.8.3-.3-.8-1.8-2.3-3.3l-2.9-2.7 2.3 3.2zm5.9 5.7c1.3 1.6 5.1 4.1 5.1 3.3 0-.2-1.5-1.4-3.2-2.7-2.1-1.5-2.8-1.7-1.9-.6zm43.5 1.8-1.9 2.3 2.3-1.9c2.1-1.8 2.7-2.6 1.9-2.6-.2 0-1.2 1-2.3 2.2zm-6.9 4c-1.1.7-4.7 1.8-8 2.5l-6 1.3 5.4-.6c4.5-.4 14.8-4.3 11.6-4.3-.5 0-1.9.5-3 1.1zm-24.4.8c.9.5 3.6 1.2 6 1.5 4.2.5 4.1.4-1.1-1-6.5-1.7-7-1.7-4.9-.5zM2525 1775.4c0 .2.8 1 1.8 1.7 1.5 1.3 1.6 1.2.3-.4s-2.1-2.1-2.1-1.3zm15.8 7.3c.7.3 1.6.2 1.9-.1.4-.3-.2-.6-1.3-.5-1.1 0-1.4.3-.6.6zm7 1c.6.2 1.8.2 2.5 0 .6-.3.1-.5-1.3-.5-1.4 0-1.9.2-1.2.5zm44.2 72.7c0 .2.8 1 1.8 1.7 1.5 1.3 1.6 1.2.3-.4s-2.1-2.1-2.1-1.3zm-1179.8-102.9c-1.7 3.7-1.4 4.5.4 1.2.9-1.6 1.4-3.1 1.1-3.3-.2-.2-.9.7-1.5 2.1zm-2.7 102c-.9 2.2-2.7 6.3-4 9.2-1.8 3.9-2.1 5.4-1.1 6.2 2.4 2 14.2 7.1 16.4 7.1h2.2l-2.6-5.3c-1.5-2.8-4.2-8.8-6-13.2l-3.3-8-1.6 4zm33.3 22.2c.7.3 1.6.2 1.9-.1.4-.3-.2-.6-1.3-.5-1.1 0-1.4.3-.6.6zm-16.5 1c.9.2 2.5.2 3.5 0 .9-.3.1-.5-1.8-.5-1.9 0-2.7.2-1.7.5zm10 0c.9.2 2.5.2 3.5 0 .9-.3.1-.5-1.8-.5-1.9 0-2.7.2-1.7.5zm-51.3 23.9c-1.1 2.1-1.7 4-1.3 4.4.4.4 2.9 1.4 5.6 2.3 3.6 1.2 4.7 1.3 4.7.3 0-1.2-5.6-10.6-6.4-10.6-.2 0-1.4 1.6-2.6 3.6zm-238.9-1506c0 1.1.3 1.4.6.6.3-.7.2-1.6-.1-1.9-.3-.4-.6.2-.5 1.3zM926.7 647.2c-3.2 1.1-5.7 2.2-5.4 2.4.2.2 3.5-.7 7.3-2 3.8-1.4 6.2-2.4 5.4-2.4-.8 0-4.1.9-7.3 2zm-21.5 6.5c-4 1.4-7.2 2.7-6.9 2.9.2.2 4.1-.9 8.8-2.5 4.6-1.6 7.7-2.9 6.9-2.9-.8 0-4.8 1.1-8.8 2.5zm-21.5 6.5c-3.2 1.1-5.7 2.2-5.4 2.4.2.2 3.5-.7 7.3-2 3.8-1.4 6.2-2.4 5.4-2.4-.8 0-4.1.9-7.3 2zm-20.7 6.3c-3.6 1.3-6 2.4-5.4 2.4.5.1 4.1-1 8-2.3 3.8-1.4 6.2-2.4 5.4-2.4-.8 0-4.4 1-8 2.3zm-20 6c-3.6 1.3-6 2.4-5.4 2.4.5.1 4.1-1 8-2.3 3.8-1.4 6.2-2.4 5.4-2.4-.8 0-4.4 1-8 2.3zm-20 6c-3.6 1.3-6 2.4-5.4 2.4.5.1 4.1-1 8-2.3 3.8-1.4 6.2-2.4 5.4-2.4-.8 0-4.4 1-8 2.3zM126 2472.4c0 .2.8 1 1.8 1.7 1.5 1.3 1.6 1.2.3-.4s-2.1-2.1-2.1-1.3zm3 4c0 .2.8 1 1.8 1.7 1.5 1.3 1.6 1.2.3-.4s-2.1-2.1-2.1-1.3zm393.2 165.2c1 .3 1.9 1.9 2.1 3.7.4 3.1.5 3.1.3-.3-.1-2.7-.5-3.5-2.1-3.7-1.4-.1-1.5 0-.3.3zm3.1 11.9c0 2.7.2 3.8.4 2.2.2-1.5.2-3.7 0-5-.2-1.2-.4 0-.4 2.8zm.9 17c0 1.6.2 2.2.5 1.2.2-.9.2-2.3 0-3-.3-.6-.5.1-.5 1.8zm1.1 15c0 3.8.2 5.3.4 3.2.2-2 .2-5.2 0-7-.2-1.7-.4-.1-.4 3.8zm236.5-.8c.6.2 1.8.2 2.5 0 .6-.3.1-.5-1.3-.5-1.4 0-1.9.2-1.2.5zm5.5 1c.9.2 2.3.2 3 0 .6-.3-.1-.5-1.8-.5-1.6 0-2.2.2-1.2.5zm6 1c.9.2 2.5.2 3.5 0 .9-.3.1-.5-1.8-.5-1.9 0-2.7.2-1.7.5zm-247.1 21.8c-.1 8.8-.4 19.1-.7 23l-.4 7 1-7c.5-3.9.8-14.2.6-23l-.3-16-.2 16zm252.2 9.5c0 5.8.1 8.1.3 5.2.2-2.8.2-7.6 0-10.5-.2-2.8-.3-.5-.3 5.3zm-1 47.5c0 18.1.2 25.7.3 16.8.2-8.9.2-23.7 0-33-.1-9.2-.3-2-.3 16.2zm-253.3-22.9c0 1.1.3 1.4.6.6.3-.7.2-1.6-.1-1.9-.3-.4-.6.2-.5 1.3zm-1 8c0 1.1.3 1.4.6.6.3-.7.2-1.6-.1-1.9-.3-.4-.6.2-.5 1.3zm-1.5 5c-.4 1.4-.5 2.8-.3 3.1.3.2.8-.8 1.1-2.3.4-1.4.5-2.8.3-3.1-.3-.2-.8.8-1.1 2.3zm-2 5.9c-.9 2.6-.7 3.2.5 1.2.6-1 .9-2.1.6-2.3-.2-.3-.7.2-1.1 1.1zm-7.5 14.8c-4.2 5-4.3 5-.7 1.7 3.2-3 6.3-7 5.4-7-.2 0-2.3 2.4-4.7 5.3zm-97.3-1.8c1.4 2.9 9.2 11.5 10.4 11.5.5 0-.6-1.5-2.4-3.3-1.9-1.7-4.6-4.8-6.2-6.7-1.5-1.9-2.3-2.6-1.8-1.5zm88.5 8.6c-3.5 2.2-4.6 3.7-1.5 2 2.2-1.3 5.8-4 5.2-4.1-.3 0-2 1-3.7 2.1zm-76.3 4.3c0 .3 1.4 1.2 3 2.1 1.7.9 3 1.3 3 1.1 0-.3-1.3-1.2-3-2.1-1.6-.9-3-1.3-3-1.1zm62.5 2.3c-6.4 2.7-8.6 4-4.5 2.8 3.5-1.1 12.7-5.3 11.5-5.3-.5 0-3.7 1.1-7 2.5zm-11.7 4c.7.3 1.6.2 1.9-.1.4-.3-.2-.6-1.3-.5-1.1 0-1.4.3-.6.6zm-32.3 1.5c3.8 1.3 24 1.3 28 0 2.3-.8 1.5-.9-3.5-.4-8.3.9-15.1.9-22 0-4.5-.6-5-.5-2.5.4zm332.8 10.8c0 3.6.2 5 .4 3.2.2-1.7.2-4.7 0-6.5-.2-1.7-.4-.3-.4 3.3zm1 21c0 2.5.2 3.5.4 2.2.2-1.2.2-3.2 0-4.5-.2-1.2-.4-.2-.4 2.3zm.8 8.3c-.1 3.2 3.8 32 4.5 32.6.7.7.4-1.4-2.1-18.9-1.2-9.1-2.3-15.3-2.4-13.7zm5.1 40.7c0 1.4.2 1.9.5 1.2.2-.6.2-1.8 0-2.5-.3-.6-.5-.1-.5 1.3zm1 6.5c0 1.6.2 2.2.5 1.2.2-.9.2-2.3 0-3-.3-.6-.5.1-.5 1.8zm1 5.5c0 1.4.4 3.8.8 5.5.7 2.7.8 2.7.8.5 0-1.4-.4-3.9-.8-5.5-.7-2.7-.8-2.7-.8-.5zm2 11c0 1.4.4 3.8.8 5.5.7 2.7.8 2.7.8.5 0-1.4-.4-3.9-.8-5.5-.7-2.7-.8-2.7-.8-.5zm1.9 14.6c0 1.1.3 1.4.6.6.3-.7.2-1.6-.1-1.9-.3-.4-.6.2-.5 1.3zm1.5 7.2c.6 5.6 4.1 20.8 4.2 18.2.1-.8-1-6.5-2.3-12.5-1.4-6.3-2.2-8.7-1.9-5.7zm5.6 31.2c0 1.4.2 1.9.5 1.2.2-.6.2-1.8 0-2.5-.3-.6-.5-.1-.5 1.3zm1 5c0 1.4.4 3.6.8 5 .6 2 .8 2.1.8.5 0-1.1-.4-3.4-.8-5-.7-2.7-.8-2.7-.8-.5zm2 10.5c0 1.6.2 2.2.5 1.2.2-.9.2-2.3 0-3-.3-.6-.5.1-.5 1.8zm1.1 8.5c0 3 .2 4.3.4 2.7.2-1.5.2-3.9 0-5.5-.2-1.5-.4-.2-.4 2.8zm0 18.5c0 2.7.2 3.8.4 2.2.2-1.5.2-3.7 0-5-.2-1.2-.4 0-.4 2.8zm-2.1 11.5c-.7 3.4-1.1 6.4-.8 6.7.6.6 2.9-10.4 2.4-11.8-.2-.6-.9 1.7-1.6 5.1zm-6.5 21.5c-2.4 5-2 5.8.4 1.2 1.1-2.2 1.9-4.1 1.7-4.3-.3-.2-1.2 1.2-2.1 3.1zm-525.8 139.8c-12.4 3.5-20.6 15.1-19.7 27.9.7 10.3 6.3 18.8 15.3 23.3 5.8 2.9 18.5 2.8 24.1-.2 11.5-6.1 17.5-19.6 14-31.6-4.2-14.6-19.5-23.4-33.7-19.4zm864.5 33.7c-15.9 3.2-29.5 17.5-32.4 34.2-3 17.1 7.2 35.9 23.7 43.6 5.2 2.4 6.9 2.7 16.8 2.7s11.6-.3 16.8-2.7c12-5.6 21.6-18.2 23.6-30.9 4.5-28-20.7-52.4-48.5-46.9zM835 3255.9c-7.1 2.2-14.8 9-17.5 15.5-5.5 13.3 0 28.5 12.9 35 4.8 2.5 6.9 3 12.4 2.9 7.9 0 12.6-1.9 18.3-7 11.6-10.5 11.9-28.2.7-39.4-6.8-6.8-17.8-9.7-26.8-7z"/>
</svg>
